<?xml version="1.0" encoding="UTF-8"?>
<svg id="Layer_1" xmlns="http://www.w3.org/2000/svg" version="1.1" viewBox="0 0 37 40">
  <!-- Generator: Adobe Illustrator 30.2.1, SVG Export Plug-In . SVG Version: 2.1.1 Build 1)  -->
  <defs>
    <style>
      .st0 {
        fill: #fff;
        fill-rule: evenodd;
      }

      .st1 {
        fill: #0b0c0f;
      }
    </style>
  </defs>
<path class="st0" d="M17.9,34.2c-.1,0-.4-.1-.5-.2,0,0-1.3-1.9-1.3-1.9l4.9-5.1,2.8-2.9c2.1-2.2,4.5-5.6,5.9-8.4,1.1-2.1,1.9-4.3,2.2-6.7.1-1,.2-1.9.1-2.9v-1c-.1-.2-.3-.8-.4-.9h0s-.1,0-.1,0v.9c.2,5.5-5.9,14.1-9.6,18l-3.4,3.5-3.9,4.1c0,.2-1.7-1-1.7-1-.2-.1-.3-.3-.4-.5,0-.2-.3-.3-.5-.3s-.4,0-.5.4c0,.3,0,.6.4.7,0,0,.3,0,.4.2l1.3,1.6-.2.4h0c-.3,0-.4.4-.5.5-.3.2-.4.4-.6.6-.1.2-.6.3-.5.7-.4,0-.6.3-.6.8h0c-.5,0-.4.6-.6.8-.3.3-.3.6-.4,1,0,.4-.2.6,0,1,0,.2-.1.7.2.9.2.2.5.3.8.4,0,0,.2.2.3.2h0c.1,0,.2-.2.3-.3.2-.3.4-.5.4-.9s-.2-.6-.3-.8c.2-.1.2-.3.3-.5h0s.1-.4.1-.4l.4-.4.4-.5c.2,0,.4-.4.6-.5.2-.2.4-.3.5-.5.1-.2.5-.2.5-.6.2,0,.4-.1.5-.3l1.5.9c.2.1.4.3.4.5,0,.2.3.4.5.4s.4-.1.5-.3c0-.2,0-.5-.2-.6h0ZM25.9,3.5c-1.8,2.2-4.1,4.1-6.4,5.7-.2.2,0,.5,0,.7v2.2h-5.1c3.8-2.8,8-6.4,10.3-10.6,0-.2.2-.4,0-.6-1,0-2.3.2-3.3.2s-2,0-2.9-.1h0c-.1,0-.3,0-.3.1-.2.3.3.4.1,1.8-.2,1.4-.4,1.7-.8,2.5-1.2,2.8-3.8,5.1-6.3,6.7,0,.3,0,.6,0,.9v.9c0,0,.1.7.1.7h6.7c.3,0,.5,0,.8.1-.3.9-.6,1.8-1.2,2.5-.3.4-.4.5-.3.5h0s0,0,.1,0c1-.1,2-.2,3-.2s2,0,3,.2c.2,0,.2-.3.1-.5-.2-.5-.2-1.7,0-2.2l1.6.2.6-3.2h-1.9c.6-3,1.3-5.7,2.6-8.5,0,0-.2-.1-.3-.1h0ZM18.2,26.3c-3.6-3.6-6.8-7.2-9.4-11.7-1-1.7-1.9-3.4-2.5-5.3-.4-1.2-.7-2.5-.8-3.8,0-.4,0-.8,0-1.2,0-.1,0-.2,0-.2,0,0-.2,0-.2.1-.2.4-.3,1.1-.3,1.6-.1.9,0,1.8,0,2.8.7,5.8,4.4,11.4,8.2,15.6l1.1,1.2,2.3,2.4,1.5-1.5ZM26.9,36.5c.3-.4-.2-.6-.3-1-.1-.4,0-.3-.5-.9-.4-.6-.7-.8-1.2-1.4-.2-.2-.4-.4-.6-.6-.2-.1-.2-.5-.5-.5h0v-.4c-.1,0,1-1.4,1-1.4.2-.2.3-.4.6-.4.2,0,.3-.2.4-.4,0-.2,0-.4-.2-.5,0,0-.2,0-.3,0s-.2,0-.3,0c-.2,0-.3.3-.3.5l-2.1,1.2-2.2-2.3-1.5,1.5,2.1,2.2s0,0,0,0-1.3,1.8-1.3,1.8c-.1.1-.4.1-.6.2-.3.2-.2.7,0,.8,0,0,.1,0,.3,0s.4,0,.5-.3c0,0,.1-.3.2-.4,0,0,2-1.2,1.9-1.2,0,.3.3.3.4.4.1.2.4.4.5.6l.6.5c.7.7.4.3,1,1,0,0,.2.3.3.5h0c.3.5,0,.7.5.8-.5.5-.4,1.1,0,1.6.1.1.2.4.3.4h0c.1,0,0,0,.4-.2.3-.1.6-.1.8-.4.2-.3.2-.6.2-.9s.2-.4.1-.6c0-.1-.1-.3-.3-.4h0Z"/>
</svg>