<svg preserveAspectRatio="none" width="100%" height="100%" overflow="visible" style="display: block;" viewBox="0 0 310 232.5" fill="none" xmlns="http://www.w3.org/2000/svg">
<g id="Frame 17">
<path id="Vector" fill-rule="evenodd" clip-rule="evenodd" d="M186.716 67.7693C187.374 67.8865 187.607 68.7064 187.142 69.1359L186.677 69.6044C186.212 70.0729 185.476 70.2682 184.856 70.0729L175.246 67.3399C175.052 67.3008 174.936 67.0665 174.975 66.8713L175.207 65.9343C175.285 65.661 175.556 65.5048 175.827 65.5438L186.716 67.7303V67.7693ZM160.134 26.7732C160.56 27.0855 160.793 27.6321 160.715 28.1788L158.662 40.3605C158.662 40.6338 158.39 40.79 158.119 40.7509L157.189 40.6338C156.918 40.6338 156.763 40.3605 156.763 40.1262L157.732 26.578C157.732 25.9532 158.507 25.6019 159.01 25.9923L160.095 26.7732H160.134ZM170.984 44.4991C170.867 44.421 170.829 44.2649 170.79 44.1477C170.674 43.4059 170.984 42.6641 170.984 42.6641C171.061 42.5079 171.139 42.3517 171.255 42.1175C171.565 41.688 171.875 41.3756 172.65 41.1023C174.239 40.5166 174.859 39.1892 175.246 37.7055C175.556 36.5342 175.44 36.4561 175.905 34.7772C176.137 33.9963 176.331 33.4106 176.757 32.864C176.951 32.6298 177.261 32.2003 177.842 31.927C178.695 31.4584 179.547 31.5756 179.973 31.6537C180.826 31.8098 181.562 32.2003 182.221 32.7469C182.686 33.0983 182.686 33.3326 182.221 33.723C180.283 35.6362 178.385 37.5884 176.447 39.5015C174.82 41.1023 173.231 42.7422 171.604 44.343C171.526 44.421 171.255 44.7334 171.022 44.6553C170.945 44.6553 170.906 44.5772 170.867 44.5772L170.945 44.4991H170.984ZM145.991 32.7469L148.626 41.1023C148.703 41.3756 148.626 41.688 148.277 41.8051L147.58 42.0784C147.308 42.1955 146.96 42.0784 146.843 41.7661L143.976 34.7381C143.705 34.0744 143.821 33.3326 144.209 32.7859L144.441 32.4345C144.867 31.8879 145.72 32.0441 145.913 32.6688L145.991 32.7469ZM143.589 35.8704L146.34 42.0394C146.456 42.3517 146.34 42.7031 146.068 42.8593L145.526 43.1716C145.255 43.3278 144.906 43.2497 144.751 42.9764L142.155 38.6035C141.729 37.8617 141.69 36.9636 142.155 36.2218L142.349 35.8704C142.62 35.3628 143.356 35.4019 143.589 35.8704ZM138.125 45.5143C138.048 45.6314 137.893 45.6705 137.776 45.7095C137.04 45.8266 136.265 45.5143 136.265 45.5143C136.11 45.4362 135.916 45.3581 135.723 45.241C135.296 44.9286 134.986 44.6163 134.715 43.8354C134.134 42.2346 132.817 41.6099 131.305 41.2194C130.143 40.9071 130.065 41.0242 128.36 40.5557C127.547 40.3214 127.004 40.1262 126.462 39.6967C126.229 39.5015 125.803 39.1892 125.532 38.6035C125.067 37.7445 125.183 36.8856 125.261 36.4561C125.416 35.5971 125.803 34.8553 126.346 34.1915C126.694 33.723 126.927 33.723 127.314 34.1915C129.252 36.1047 131.15 38.0569 133.088 39.97C134.715 41.5708 136.304 43.2107 137.893 44.8115C137.97 44.8896 138.28 45.1629 138.203 45.3971C138.203 45.4752 138.125 45.5143 138.125 45.5533V45.5143ZM165.908 32.864C166.334 33.4106 166.411 34.1525 166.14 34.8162L163.273 41.8441C163.157 42.1175 162.847 42.2736 162.537 42.1565L161.839 41.8832C161.568 41.7661 161.413 41.4537 161.49 41.1804L164.125 32.825C164.319 32.1612 165.21 32.0051 165.598 32.5907L165.869 32.9421V32.864H165.908ZM126.036 30.6776C126.036 30.6776 126.113 30.6776 126.113 30.7947V30.9118C126.113 30.9118 126.113 30.9899 125.997 31.068C125.997 31.068 125.919 31.1461 125.881 31.1851L125.377 31.7318L124.834 32.2393C124.834 32.2393 124.757 32.3174 124.718 32.3565C124.641 32.4345 124.602 32.4736 124.563 32.4736H124.447C124.447 32.4736 124.369 32.4736 124.331 32.3955C124.331 32.3955 124.331 32.3174 124.253 32.2393C124.253 32.1612 124.253 31.5365 124.718 31.068C125.183 30.5604 125.803 30.5995 125.881 30.5995C125.958 30.5995 126.036 30.6776 126.036 30.6776ZM148.781 29.5453L150.951 40.4776C150.951 40.7509 150.835 41.0242 150.563 41.1023L149.633 41.3366C149.44 41.3366 149.246 41.2585 149.168 41.0633L146.417 31.4194C146.223 30.7557 146.417 30.0529 146.882 29.5843L147.347 29.1158C147.812 28.6473 148.587 28.8815 148.742 29.5453H148.781ZM189.467 56.3685L190.28 57.4617C190.668 57.9693 190.28 58.7111 189.699 58.7502L176.176 59.7263C175.905 59.7263 175.711 59.5701 175.672 59.2968L175.556 58.3597C175.556 58.0864 175.711 57.8522 175.944 57.8131L188.111 55.7828C188.653 55.7048 189.195 55.9 189.505 56.3685H189.467ZM151.106 25.9923C151.61 25.6019 152.346 25.9923 152.384 26.578L153.353 40.1262C153.353 40.3995 153.198 40.5947 152.927 40.6338L151.997 40.7509C151.726 40.7509 151.493 40.5947 151.455 40.3605L149.401 28.1788C149.323 27.6321 149.517 27.0855 149.982 26.7732L151.067 25.9923H151.106ZM139.133 44.4991C139.133 44.4991 139.055 44.5772 138.978 44.5772C138.745 44.6553 138.474 44.3039 138.396 44.2649C136.769 42.6641 135.18 41.0633 133.553 39.4234C131.615 37.5103 129.717 35.5581 127.779 33.6449C127.392 33.2545 127.392 33.0202 127.779 32.6688C128.438 32.1222 129.174 31.7318 130.027 31.5756C130.453 31.4975 131.305 31.3804 132.158 31.8489C132.7 32.1222 133.049 32.5517 133.243 32.7859C133.669 33.3326 133.863 33.9182 134.095 34.6991C134.56 36.378 134.444 36.4561 134.754 37.6274C135.141 39.1111 135.761 40.4386 137.35 41.0242C138.125 41.2975 138.435 41.6099 138.745 42.0394C138.9 42.2346 138.939 42.3908 139.016 42.586C139.016 42.586 139.365 43.3669 139.21 44.0696C139.21 44.2258 139.132 44.343 139.016 44.421L139.094 44.4991H139.133ZM183.306 31.1461C183.306 31.1461 183.383 31.1461 183.499 31.3023C183.887 31.6537 184.042 31.8489 184.313 32.0832C184.584 32.3565 184.739 32.5126 185.127 32.9031C185.243 33.0202 185.282 33.0593 185.282 33.0983C185.592 33.5668 185.553 34.2306 185.282 34.3477H185.127C184.972 34.3477 184.817 34.2306 184.778 34.1915C184.236 33.684 183.809 33.2545 183.461 32.9031C183.112 32.5517 182.686 32.0832 182.182 31.5756C182.182 31.5756 182.027 31.4194 182.027 31.2242V31.068C182.143 30.8337 182.841 30.7557 183.267 31.068V31.1461H183.306ZM140.837 43.8354C141.264 43.4059 141.729 43.4059 142.155 43.8354C142.542 44.2258 142.581 44.6944 142.155 45.1238C141.612 45.6705 141.031 46.2561 140.45 46.8027C139.907 47.3884 139.326 47.935 138.784 48.5207C138.358 48.9501 137.893 48.9111 137.505 48.5207C137.079 48.0912 137.079 47.6227 137.505 47.1932C138.048 46.6466 138.629 46.0609 139.171 45.5143C139.714 44.9677 140.295 44.382 140.837 43.8354ZM124.951 36.1437C124.873 36.417 124.796 36.6903 124.757 36.9636C124.486 38.2911 124.912 39.3844 125.958 40.2824C126.772 40.9461 127.702 41.2585 128.709 41.4537C129.678 41.6489 130.685 41.8441 131.654 42.0394C132.971 42.3517 133.863 43.1326 134.328 44.382C134.56 44.9286 134.831 45.3191 135.219 45.6314C135.606 45.9438 136.188 46.178 136.846 46.2561H136.963C136.963 46.2561 137.118 46.2561 137.156 46.3342C137.156 46.4904 137.079 46.5685 137.001 46.6466C136.653 46.9589 136.188 47.037 136.149 47.037C134.793 47.3103 133.94 46.7637 133.553 45.4362C133.553 45.241 133.436 45.0457 133.398 44.8896C133.204 43.9525 132.584 43.4449 131.693 43.3278C130.647 43.2107 129.6 43.2497 128.554 43.1716C127.895 43.1716 127.198 43.0545 126.539 42.8593C124.641 42.2736 123.633 40.7509 123.827 38.7597C123.904 37.9397 124.098 37.1198 124.563 36.378C124.563 36.378 124.563 36.2999 124.641 36.2999C124.757 36.1047 124.834 36.0266 124.912 36.0656V36.1437H124.951ZM186.677 53.284L187.142 53.7526C187.607 54.2211 187.374 55.002 186.716 55.1191L175.827 57.3056C175.556 57.3446 175.285 57.1884 175.207 56.9151L174.975 55.9781C174.975 55.7828 175.052 55.5876 175.246 55.5095L184.856 52.7765C185.514 52.5812 186.212 52.7765 186.677 53.245V53.284ZM192.412 60.9366C192.412 61.0928 192.412 61.249 192.412 61.4442C192.412 61.6394 192.412 61.7956 192.412 61.9518C192.257 62.7717 191.482 63.3574 190.668 63.3183L176.137 62.6155C175.944 62.6155 175.75 62.4203 175.75 62.2251V60.6633C175.75 60.4681 175.905 60.2729 176.137 60.2729L190.668 59.5701C191.52 59.5311 192.257 60.1167 192.412 60.9366ZM155.058 43.6792H154.981C151.106 43.6792 147.502 44.9286 144.596 47.037L145.061 47.3103C145.526 47.5446 145.952 47.8569 146.378 48.1693C148.858 50.0434 150.408 52.8545 150.68 55.939L151.532 63.2402L150.796 63.1621C150.137 63.1621 149.595 63.6307 149.478 64.2554C149.401 64.6068 149.478 64.9582 149.672 65.2705C149.866 65.5829 150.176 65.7781 150.563 65.8562L151.338 66.0124C151.61 65.4657 151.92 64.8801 152.23 64.2554C153.121 61.9908 153.934 59.5311 153.896 56.8761C153.896 55.4314 153.779 53.9478 153.663 52.5031C153.586 51.1366 153.469 49.7701 153.469 48.3645C153.469 46.9589 153.469 47.7007 153.586 47.2322C153.779 46.0999 154.206 45.0067 154.826 43.9916L155.058 43.6011V43.6792ZM146.805 70.0729H150.021C150.021 69.4092 150.137 68.7845 150.292 68.1207L149.788 68.0036C148.587 67.6912 147.618 66.7542 147.231 65.5829H146.805V70.0729ZM144.557 47.076C140.14 50.3167 137.273 55.5486 137.273 61.4442C137.273 71.2442 145.216 79.2092 154.981 79.2092C164.745 79.2092 172.689 71.2442 172.689 61.4442C172.689 51.6442 169.86 50.3948 165.52 47.1541V72.4546H159.785C159.01 74.6411 157.848 76.5152 156.337 78.0379C155.988 78.3893 155.639 78.7016 155.291 78.975L155.097 79.1311L154.903 78.975C154.554 78.6626 154.167 78.3503 153.857 78.0379C152.307 76.5152 151.145 74.6411 150.408 72.4546H144.674V47.037H144.557V47.076ZM152.23 70.1901H153.973V70.0339C153.818 69.3311 153.276 68.7454 152.617 68.5112H152.501C152.501 68.4721 152.501 68.5893 152.501 68.5893C152.384 69.0578 152.307 69.5654 152.307 70.0339V70.151H152.23V70.1901ZM160.057 70.0729H163.273V65.5829H162.847C162.459 66.7542 161.49 67.6912 160.289 68.0036L159.785 68.1207C159.94 68.7454 160.018 69.4092 160.057 70.0729ZM155.019 67.496C155.407 67.1056 155.872 66.7542 156.414 66.559C155.872 65.5829 155.407 64.5287 155.019 63.4745C154.632 64.5287 154.167 65.5438 153.624 66.559C154.167 66.7932 154.632 67.1056 155.019 67.496ZM165.404 47.1151C162.498 45.0067 158.972 43.7183 155.136 43.7183L155.368 44.1087C155.949 45.1238 156.337 46.2171 156.531 47.3103C156.608 47.8179 156.647 48.1693 156.647 48.4426C156.647 49.8091 156.531 51.2147 156.453 52.5812C156.337 54.0259 156.259 55.4705 156.221 56.9542C156.143 59.6091 156.996 62.0689 157.887 64.3335C158.197 64.9582 158.468 65.5438 158.778 66.0904L159.553 65.9343C159.902 65.8562 160.212 65.661 160.444 65.3486C160.638 65.0363 160.715 64.6849 160.638 64.3335C160.522 63.7088 159.94 63.2402 159.32 63.2402L158.584 63.3183L159.475 56.0171C159.747 52.9326 161.335 50.1215 163.777 48.2474C164.203 47.935 164.629 47.6617 165.094 47.3884L165.481 47.1541H165.404V47.1151ZM146.805 63.2012H147.231C147.502 62.3422 148.122 61.6004 148.897 61.1319L148.238 55.5876C148.083 54.2211 147.58 52.9326 146.805 51.8004V63.2012ZM154.012 75.2267V72.2984H152.501V72.4546C152.811 73.3526 153.198 74.1725 153.779 74.9144L154.012 75.2267ZM156.066 70.1901H157.809V70.0729C157.809 69.6044 157.693 69.0968 157.577 68.6283V68.5112H157.422C156.724 68.7454 156.221 69.3701 156.066 70.0729V70.2291V70.1901ZM156.066 75.2267L156.298 74.9144C156.841 74.1725 157.267 73.3526 157.538 72.4546V72.2984H156.066V75.2267ZM162.847 63.2012H163.273V51.8004C162.498 52.9326 161.994 54.2211 161.839 55.5876L161.18 61.1319C161.994 61.6004 162.575 62.3422 162.847 63.2012ZM154.981 41.4147C166.024 41.4147 174.936 50.3948 174.936 61.4442C174.936 72.4937 165.985 81.4738 154.981 81.4738C143.976 81.4738 135.025 72.4937 135.025 61.4442C135.025 50.3948 143.976 41.4147 154.981 41.4147ZM180.09 48.4816L180.438 48.6768C180.942 48.9501 180.903 49.692 180.438 49.9262L174.316 52.6984C174.006 52.8155 173.657 52.6984 173.502 52.4251L173.192 51.8784C173.037 51.6051 173.115 51.2537 173.386 51.0976L177.726 48.5207C178.462 48.0912 179.353 48.0521 180.09 48.5207H180.128L180.09 48.4816ZM126.501 50.59C127.082 50.1605 127.818 50.0824 128.438 50.3557L135.451 53.2059C135.723 53.3231 135.878 53.6354 135.761 53.9478L135.49 54.6506C135.374 54.9239 135.064 55.08 134.793 54.9629L126.462 52.347C125.803 52.1517 125.648 51.2537 126.229 50.8633L126.578 50.629H126.501V50.59ZM126.423 70.5415L134.754 67.9255C135.025 67.8474 135.335 67.9646 135.451 68.2379L135.723 68.9407C135.839 69.214 135.723 69.5654 135.413 69.6825L128.399 72.5327C127.74 72.806 127.004 72.6889 126.462 72.2984L126.113 72.0642C125.571 71.6347 125.687 70.7757 126.346 70.5805H126.423V70.5415ZM155.562 99.0045C155.407 99.0045 155.252 99.0436 155.058 99.0436C154.864 99.0436 154.709 99.0436 154.554 99.0045C153.741 98.8483 153.159 98.0675 153.198 97.2475L153.896 82.6841C153.896 82.4889 154.089 82.3327 154.283 82.2937H155.833C156.027 82.2937 156.221 82.4499 156.221 82.6841L156.918 97.2475C156.918 98.1065 156.376 98.8483 155.562 99.0045ZM163.195 93.265L162.73 93.7336C162.265 94.2021 161.49 93.9678 161.335 93.3041L159.165 82.3718C159.165 82.0985 159.282 81.8252 159.553 81.7471L160.483 81.5128C160.677 81.4738 160.87 81.5909 160.948 81.7861L163.699 91.43C163.893 92.0937 163.699 92.7965 163.234 93.265H163.195ZM129.833 31.2632H129.755C129.755 31.2632 129.833 31.1461 129.988 30.9899C129.988 30.9899 130.065 30.9899 130.065 30.9118C130.802 30.4433 131.615 30.2481 132.429 30.17C134.405 29.9748 135.955 30.9899 136.498 32.9031C136.691 33.5668 136.769 34.2306 136.808 34.9334C136.885 35.9875 136.808 37.0417 136.963 38.0959C137.079 38.9939 137.583 39.6186 138.513 39.8139C138.706 39.8139 138.9 39.8919 139.055 39.97C140.372 40.3605 140.915 41.2194 140.682 42.5469C140.682 42.5469 140.605 43.0545 140.295 43.4059C140.217 43.484 140.14 43.5621 140.024 43.5621C139.946 43.5621 139.946 43.4059 139.946 43.3669V43.2497C139.869 42.625 139.636 42.0003 139.326 41.6489C139.016 41.2585 138.59 40.9461 138.086 40.7509C136.846 40.2433 136.071 39.3453 135.761 38.0569C135.529 37.0808 135.374 36.1047 135.18 35.0895C134.986 34.1134 134.676 33.1373 134.018 32.3565C133.165 31.3023 132.08 30.8728 130.724 31.1461C130.453 31.1461 130.182 31.2632 129.91 31.3413V31.2632H129.833ZM160.134 96.0762L159.049 96.8571C158.545 97.2475 157.809 96.8961 157.771 96.2714L156.802 82.7232C156.802 82.4499 156.957 82.2546 157.228 82.2156L158.158 82.0985C158.429 82.0985 158.662 82.2546 158.7 82.4889L160.754 94.6706C160.832 95.2172 160.638 95.7639 160.173 96.0762H160.134ZM148.781 93.3041C148.665 93.9288 147.851 94.2021 147.386 93.7336L146.921 93.265C146.456 92.7965 146.262 92.0937 146.456 91.43L149.207 81.7861C149.207 81.5909 149.478 81.4738 149.672 81.5128L150.602 81.7471C150.873 81.8252 151.028 82.0985 150.99 82.3718L148.82 93.3041H148.781ZM165.908 90.0244L165.636 90.3758C165.21 90.9224 164.358 90.7662 164.164 90.1415L161.529 81.7861C161.452 81.5128 161.529 81.2005 161.878 81.0833L162.575 80.81C162.847 80.6929 163.195 80.81 163.312 81.1224L166.179 88.1503C166.45 88.814 166.334 89.5559 165.946 90.1025V90.0244H165.908ZM168 86.6666L167.806 87.018C167.535 87.5256 166.799 87.4865 166.566 86.979L163.815 80.81C163.699 80.4977 163.815 80.1463 164.087 79.9901L164.629 79.6777C164.9 79.5216 165.249 79.5997 165.404 79.873L168 84.2459C168.426 84.9877 168.465 85.8857 168 86.6276V86.6666ZM126.81 87.2132L129.29 89.673C129.445 89.8292 129.368 90.0634 129.174 90.1415C128.399 90.4539 127.469 90.2587 126.849 89.634C126.229 89.0093 126.036 88.0722 126.346 87.2913C126.423 87.0961 126.655 87.0571 126.81 87.1742V87.2132ZM133.669 86.7837C133.824 86.9399 133.824 87.1742 133.669 87.3304L132.971 88.0332C132.817 88.1893 132.584 88.1893 132.429 88.0332L128.477 84.0897C128.322 83.9335 128.322 83.6993 128.477 83.5431L129.174 82.8403C129.329 82.6841 129.562 82.6841 129.717 82.8403L133.669 86.7837ZM133.553 85.6124L130.879 82.9574C130.724 82.8013 130.724 82.567 130.879 82.4108L136.808 76.4761C136.963 76.32 137.195 76.32 137.35 76.4761L140.024 79.1311C140.179 79.2873 140.179 79.5216 140.024 79.6777L134.095 85.6124C133.94 85.7686 133.708 85.7686 133.553 85.6124ZM141.612 79.053C141.186 79.053 140.837 78.8969 140.527 78.5845L140.334 78.3893C139.946 77.9989 139.597 77.6475 139.21 77.257L138.048 76.0857L137.893 75.9295C137.466 75.5 137.35 74.9144 137.544 74.2116C137.66 73.8211 137.815 73.704 137.97 73.665C138.086 73.665 138.28 73.665 138.513 73.8602C138.513 73.8992 142.581 77.9989 142.581 77.9989C142.775 78.2331 142.775 78.4283 142.775 78.5455C142.775 78.6626 142.62 78.8578 142.232 78.975C142 79.053 141.806 79.053 141.612 79.053ZM117.511 60.9366C117.666 60.1167 118.441 59.5311 119.255 59.5701L133.785 60.2729C133.979 60.2729 134.173 60.4681 134.173 60.6633V62.2251C134.173 62.4203 134.018 62.6155 133.785 62.6155L119.255 63.3183C118.402 63.3574 117.666 62.7717 117.511 61.9518C117.511 61.7956 117.511 61.6394 117.511 61.4442C117.511 61.249 117.511 61.0928 117.511 60.9366ZM120.456 56.3685C120.766 55.939 121.308 55.7048 121.851 55.7828L134.018 57.8131C134.289 57.8522 134.444 58.0864 134.405 58.3597L134.289 59.2968C134.289 59.5701 134.018 59.7263 133.785 59.7263L120.262 58.7502C119.603 58.7111 119.293 57.9693 119.681 57.4617L120.495 56.3685H120.456ZM119.681 65.4267C119.293 64.9191 119.681 64.1773 120.262 64.1382L133.785 63.1621C134.056 63.1621 134.25 63.3183 134.289 63.5916L134.405 64.5287C134.405 64.802 134.25 65.0363 134.018 65.0753L121.851 67.1056C121.308 67.1837 120.766 66.9885 120.456 66.5199L119.642 65.4267H119.681ZM123.284 53.284C123.749 52.8155 124.486 52.6203 125.106 52.8155L134.715 55.5486C134.909 55.5876 135.025 55.8219 134.986 56.0171L134.754 56.9542C134.676 57.2275 134.405 57.3836 134.134 57.3446L123.246 55.1581C122.587 55.041 122.354 54.2211 122.819 53.7916L123.284 53.3231V53.284ZM123.207 67.7693L134.095 65.5829C134.366 65.5438 134.638 65.7 134.715 65.9733L134.948 66.9104C134.948 67.1056 134.87 67.3008 134.676 67.3789L125.067 70.112C124.408 70.3072 123.711 70.112 123.246 69.6434L122.781 69.1749C122.316 68.7064 122.548 67.9255 123.207 67.8084V67.7693ZM129.872 48.4816C130.608 48.0912 131.538 48.0912 132.235 48.4816L136.575 51.0585C136.846 51.2147 136.924 51.5661 136.769 51.8394L136.459 52.386C136.304 52.6593 135.955 52.7765 135.645 52.6593L129.523 49.8872C128.98 49.6529 128.98 48.9111 129.523 48.6378L129.872 48.4426H129.91L129.872 48.4816ZM129.523 72.9231L135.645 70.151C135.955 70.0339 136.304 70.151 136.459 70.4243L136.769 70.9709C136.924 71.2442 136.846 71.5956 136.575 71.7518L132.235 74.3287C131.499 74.7582 130.608 74.7973 129.872 74.3678L129.523 74.1725C129.019 73.8992 129.058 73.1574 129.523 72.9231ZM151.106 96.8571L150.021 96.0762C149.595 95.7639 149.362 95.2172 149.44 94.6706L151.493 82.4889C151.493 82.2156 151.765 82.0594 152.036 82.0985L152.966 82.2156C153.237 82.2156 153.392 82.4889 153.392 82.7232L152.423 96.2714C152.423 96.8961 151.648 97.2475 151.145 96.8571H151.106ZM163.195 29.5843C163.66 30.0529 163.854 30.7557 163.66 31.4194L160.909 41.0633C160.909 41.2585 160.638 41.3756 160.444 41.3366L159.514 41.1023C159.243 41.0242 159.088 40.7509 159.127 40.4776L161.297 29.5453C161.413 28.9206 162.227 28.6473 162.692 29.1158L163.157 29.5843H163.195ZM155.562 23.8449C156.376 24.001 156.957 24.7819 156.918 25.6019L156.221 40.1653C156.221 40.3605 156.027 40.5166 155.833 40.5557H154.283C154.089 40.5557 153.896 40.3995 153.896 40.1653L153.198 25.6019C153.198 24.7429 153.741 24.001 154.554 23.8449C154.709 23.8449 154.864 23.8449 155.058 23.8449C155.252 23.8449 155.407 23.8449 155.562 23.8839V23.8449ZM183.422 50.59L183.771 50.8243C184.313 51.2537 184.197 52.1127 183.538 52.3079L175.207 54.9239C174.936 55.002 174.626 54.8848 174.51 54.6115L174.239 53.9087C174.122 53.6354 174.239 53.284 174.549 53.1669L181.562 50.3167C182.221 50.0434 182.957 50.1605 183.499 50.551H183.422V50.59ZM143.589 86.979C143.356 87.5256 142.62 87.5256 142.349 87.018L142.155 86.6666C141.729 85.9248 141.767 85.0268 142.155 84.2849L144.751 79.912C144.906 79.6387 145.255 79.5606 145.526 79.7168L146.068 80.0291C146.34 80.1853 146.456 80.5367 146.34 80.8491L143.589 87.018V86.979ZM180.322 31.2632C180.051 31.1851 179.78 31.1071 179.508 31.068C178.152 30.7947 177.067 31.2242 176.215 32.2784C175.556 33.0593 175.246 34.0354 175.052 35.0114C174.859 35.9875 174.665 37.0027 174.471 37.9788C174.161 39.2672 173.386 40.1653 172.146 40.6728C171.604 40.9071 171.177 41.1804 170.906 41.5708C170.596 41.9222 170.364 42.5469 170.286 43.1716V43.2888C170.286 43.2888 170.286 43.4449 170.209 43.484C170.092 43.484 170.015 43.4059 169.938 43.3278C169.628 42.9764 169.55 42.5079 169.55 42.4688C169.279 41.1023 169.821 40.2433 171.177 39.8919C171.371 39.8919 171.565 39.7748 171.72 39.7358C172.65 39.5405 173.154 38.9158 173.27 38.0178C173.386 36.9636 173.347 35.9095 173.425 34.8553C173.425 34.1915 173.541 33.4887 173.735 32.825C174.316 30.9118 175.827 29.9357 177.803 30.0919C178.656 30.17 179.47 30.3652 180.167 30.8337C180.167 30.8337 180.245 30.8337 180.245 30.9118C180.438 31.029 180.516 31.1071 180.477 31.1851H180.4V31.2632H180.322ZM178.113 88.5407L181.988 84.6363C182.143 84.4802 182.415 84.4802 182.608 84.6363L183.267 85.3001C183.422 85.4563 183.422 85.7296 183.267 85.8857L179.392 89.7901C179.237 89.9463 178.966 89.9463 178.772 89.7901L178.113 89.1264C177.958 88.9702 177.958 88.6969 178.113 88.5407ZM184.081 30.6776C184.081 30.6776 184.158 30.6776 184.236 30.5995C184.313 30.5995 184.933 30.5995 185.398 31.068C185.902 31.5365 185.863 32.1612 185.863 32.2393C185.863 32.3174 185.786 32.3955 185.786 32.3955C185.786 32.3955 185.786 32.4736 185.669 32.4736H185.553C185.553 32.4736 185.476 32.4736 185.398 32.3565C185.398 32.3565 185.321 32.2784 185.282 32.2393L184.739 31.7318L184.236 31.1851C184.236 31.1851 184.158 31.1071 184.119 31.068C184.042 30.9899 184.003 30.9509 184.003 30.9118V30.7947C184.003 30.7947 184.003 30.7166 184.081 30.6776ZM169.318 43.8354C169.86 44.382 170.441 44.9677 170.984 45.5143C171.526 46.0609 172.107 46.6466 172.65 47.1932C173.076 47.6227 173.076 48.0521 172.65 48.5207C172.224 48.9111 171.797 48.9501 171.371 48.5207C170.79 47.974 170.248 47.3884 169.705 46.8027C169.124 46.2561 168.581 45.7095 168 45.1238C167.574 44.6944 167.613 44.2649 168 43.8354C168.426 43.4059 168.891 43.4059 169.318 43.8354ZM185.204 36.1437V36.0656C185.204 36.0656 185.321 36.1437 185.476 36.2999C185.476 36.2999 185.476 36.378 185.553 36.378C186.018 37.0808 186.212 37.9007 186.289 38.7597C186.483 40.7509 185.476 42.2736 183.577 42.8593C182.918 43.0545 182.26 43.1326 181.562 43.1716C180.516 43.2497 179.47 43.1716 178.423 43.3278C177.532 43.4449 176.912 43.9525 176.718 44.8896C176.718 45.0848 176.641 45.28 176.563 45.4362C176.176 46.7637 175.324 47.3103 173.967 47.037C173.967 47.037 173.464 46.9589 173.115 46.6466C173.037 46.5685 172.96 46.4904 172.96 46.3732C172.96 46.2561 173.115 46.2561 173.154 46.2561H173.27C173.89 46.178 174.51 45.9438 174.897 45.6314C175.285 45.3191 175.595 44.8896 175.789 44.382C176.292 43.1326 177.183 42.3517 178.462 42.0394C179.431 41.8051 180.438 41.6489 181.407 41.4537C182.415 41.2585 183.344 40.9461 184.158 40.2824C185.204 39.4234 185.631 38.3302 185.359 36.9636C185.359 36.6903 185.243 36.417 185.166 36.1437H185.204ZM167.458 77.9989L171.487 73.9383C171.875 73.5478 172.224 73.665 172.379 74.2116C172.534 74.7972 172.495 75.3829 172.03 75.8905C171.604 76.32 171.139 76.7885 170.712 77.218C170.286 77.6475 169.821 78.116 169.395 78.5455C168.93 79.014 168.349 79.053 167.729 78.8969C167.186 78.7407 167.07 78.3893 167.458 77.9989ZM168 36.2218C168.426 36.9636 168.388 37.8617 168 38.6035L165.404 42.9764C165.249 43.2497 164.9 43.3278 164.629 43.1716L164.087 42.8593C163.815 42.7031 163.699 42.3517 163.815 42.0394L166.566 35.8704C166.799 35.3238 167.535 35.3238 167.806 35.8704L168 36.2218ZM183.151 87.2132C183.306 87.0961 183.499 87.1351 183.577 87.2913C183.887 88.0722 183.732 89.0093 183.073 89.673C182.453 90.2977 181.523 90.4929 180.71 90.1806C180.516 90.1025 180.477 89.8682 180.632 89.7511L183.151 87.2523V87.2132ZM190.28 65.4267L189.467 66.5199C189.157 66.9494 188.614 67.1837 188.072 67.1056L175.905 65.0753C175.634 65.0363 175.479 64.802 175.517 64.5287L175.634 63.5916C175.634 63.3183 175.905 63.1621 176.137 63.1621L189.66 64.1382C190.319 64.1773 190.629 64.9191 190.242 65.4267H190.28ZM180.4 72.9231C180.942 73.1574 180.942 73.8992 180.4 74.1725L180.051 74.3678C179.315 74.7582 178.385 74.7582 177.687 74.3287L173.347 71.7518C173.076 71.5956 172.999 71.2442 173.154 70.9709L173.464 70.4243C173.619 70.151 173.967 70.0339 174.277 70.151L180.4 72.9231ZM176.37 85.6124C176.215 85.7686 175.982 85.7686 175.827 85.6124L169.86 79.6387C169.705 79.4825 169.705 79.2483 169.86 79.0921L172.534 76.3981C172.689 76.2419 172.921 76.2419 173.076 76.3981L179.043 82.3718C179.198 82.528 179.198 82.7622 179.043 82.9184L176.37 85.6124ZM183.538 70.5415C184.197 70.7367 184.352 71.6347 183.771 72.0251L183.422 72.2594C182.841 72.6889 182.105 72.767 181.485 72.4937L174.471 69.6434C174.2 69.5263 174.045 69.214 174.161 68.9016L174.432 68.1988C174.549 67.9255 174.859 67.7693 175.13 67.8865L183.461 70.5024H183.538V70.5415ZM172.03 45.5143C172.03 45.5143 171.952 45.4362 171.952 45.3581C171.875 45.1238 172.224 44.8505 172.262 44.7724C173.851 43.1326 175.479 41.5318 177.067 39.931C179.005 38.0178 180.903 36.0656 182.841 34.1525C183.228 33.762 183.461 33.762 183.809 34.1525C184.352 34.8162 184.739 35.5581 184.894 36.417C184.972 36.8465 185.088 37.7055 184.623 38.5645C184.313 39.1111 183.926 39.4234 183.693 39.6577C183.151 40.0872 182.57 40.2824 181.795 40.5166C180.128 40.9852 180.051 40.868 178.85 41.1804C177.377 41.5708 176.021 42.1955 175.44 43.7963C175.13 44.5772 174.859 44.8896 174.432 45.2019C174.239 45.3581 174.084 45.3971 173.89 45.4752C173.89 45.4752 173.115 45.8266 172.379 45.6705C172.224 45.6705 172.107 45.5924 172.03 45.4752V45.5143ZM145.991 90.1025C145.797 90.7662 144.906 90.9224 144.519 90.3367L144.286 89.9854C143.86 89.4387 143.782 88.6969 144.054 88.0332L146.921 81.0052C147.037 80.7319 147.347 80.5758 147.657 80.6929L148.355 80.9662C148.626 81.0833 148.781 81.3957 148.703 81.669L146.068 90.0244L145.991 90.1025ZM176.292 86.7837L180.245 82.8403C180.4 82.6841 180.632 82.6841 180.787 82.8403L181.485 83.5431C181.64 83.6993 181.64 83.9335 181.485 84.0897L177.532 88.0332C177.377 88.1893 177.145 88.1893 176.99 88.0332L176.292 87.3304C176.137 87.1742 176.137 86.9399 176.292 86.7837ZM126.81 31.1461C127.275 30.8337 127.934 30.8728 128.05 31.1461V31.3023C128.05 31.4584 127.934 31.6146 127.895 31.6537C127.392 32.2003 126.965 32.6298 126.617 32.9812C126.268 33.3326 125.803 33.762 125.299 34.2696C125.299 34.2696 125.106 34.4258 124.951 34.4258H124.796C124.563 34.3087 124.486 33.6059 124.796 33.1764C124.796 33.1764 124.796 33.0983 124.951 32.9812C125.299 32.5907 125.493 32.4345 125.764 32.1612C126.036 31.8879 126.191 31.7318 126.578 31.3804C126.694 31.2632 126.733 31.2242 126.772 31.2242V31.1461H126.81ZM131.848 88.5407C132.003 88.6969 132.003 88.9702 131.848 89.1264L131.189 89.7901C131.034 89.9463 130.763 89.9463 130.569 89.7901L126.694 85.8857C126.539 85.7296 126.539 85.4563 126.694 85.3001L127.353 84.6363C127.508 84.4802 127.779 84.4802 127.973 84.6363L131.848 88.5407ZM198.573 30.0919C187.103 15.6847 171.875 9.75 154.981 9.75C138.086 9.75 122.858 15.6847 111.389 30.0919C99.4541 43.8744 99.1441 61.9127 100.617 79.1702C102.709 116.028 114.76 162.1 132.623 196.966C137.234 204.618 145.1 223.75 155.097 223.75C165.055 223.516 172.805 204.579 177.377 196.966C195.24 162.1 207.291 116.028 209.383 79.1702C210.856 61.9127 210.546 43.8744 198.611 30.0919H198.573ZM204.695 78.7797V78.8578V78.9359C202.719 113.646 191.83 155.579 176.563 188.025C176.718 188.337 176.796 188.728 176.68 189.157C176.874 189.391 177.067 189.704 177.145 190.016C177.3 190.641 177.067 191.187 176.912 191.539C176.912 191.617 176.835 191.695 176.835 191.734V192.124C176.835 192.827 176.835 193.686 176.137 194.506C175.44 195.287 174.742 195.521 174.122 195.716C174.006 195.716 173.89 195.795 173.774 195.834C173.541 195.912 173.464 195.99 173.386 196.029C173.231 196.146 172.96 196.341 172.534 196.341H172.34C171.681 197.512 170.984 198.801 170.286 200.167C168.078 204.345 165.326 209.499 162.304 213.442C159.514 217.073 156.996 219.026 154.981 219.104C153.004 219.104 150.447 217.152 147.657 213.52C144.635 209.577 141.845 204.345 139.597 200.128C138.9 198.801 138.203 197.512 137.544 196.341C137.466 196.341 137.389 196.341 137.234 196.341C136.653 196.341 136.304 196.029 136.071 195.834C135.258 195.638 134.521 195.248 133.901 194.662C133.088 193.959 133.165 193.022 133.165 192.437V192.085C132.7 190.992 132.894 190.211 133.088 189.587C133.127 189.469 133.204 189.313 133.204 189.157L133.282 188.923C133.32 188.689 133.398 188.493 133.437 188.259C118.092 155.774 107.165 113.724 105.189 78.9359V78.8578V78.7797C103.794 62.4984 103.988 45.6705 114.837 33.1764L114.915 33.0983V33.0202C120.03 26.656 126.113 21.8927 133.01 18.8082C139.481 15.9189 146.882 14.4353 154.981 14.4353C171.72 14.4353 185.166 20.7214 194.969 33.0202L195.047 33.0983L195.124 33.1764C205.935 45.6705 206.167 62.4984 204.772 78.7797H204.695ZM153.547 183.925C153.198 183.73 152.694 183.613 152.268 183.496L148.161 178.615L148.587 177.171C148.975 177.639 148.316 177.99 148.587 178.849C148.587 178.928 148.82 179.045 148.975 179.045C149.13 179.045 149.091 179.045 149.13 179.045L161.025 166.902L167.768 159.874C172.805 154.603 178.733 146.404 182.027 139.844C184.584 134.769 186.522 129.459 187.297 123.797C187.646 121.416 187.878 119.19 187.568 116.848L187.258 114.466C187.219 114.036 186.871 112.553 186.561 112.397H186.483C186.406 112.397 186.134 112.514 186.134 112.592L186.212 114.661C186.561 127.858 171.759 148.434 162.847 157.57L154.593 166.043L145.061 175.804C145.294 176.194 145.759 176.351 146.417 176.351L145.875 176.546C145.72 176.546 145.526 176.312 145.371 176.233L140.876 173.383C140.372 173.071 140.062 172.72 139.946 172.173C139.83 171.626 139.171 171.392 138.668 171.392C138.203 171.392 137.699 171.509 137.466 172.29C137.234 173.071 137.699 173.735 138.513 173.852C138.745 173.852 139.21 174.047 139.365 174.242L143.279 178.888C143.279 179.318 143.124 179.826 142.852 180.255C142.852 179.865 142.969 179.591 143.124 179.084L142.465 178.147L142.077 179.084H141.922C141.225 179.084 141.031 179.943 140.721 180.216C140.101 180.684 139.675 181.075 139.249 181.7C138.939 182.168 137.893 182.324 138.086 183.3C137.156 183.457 136.614 184.12 136.614 185.136H136.536C135.374 185.136 135.606 186.502 135.18 186.971C134.483 187.712 134.366 188.415 134.134 189.352C133.94 190.211 133.591 190.719 134.056 191.734C134.289 192.281 133.785 193.296 134.521 193.92C135.025 194.389 135.645 194.74 136.42 194.896C136.653 194.975 136.924 195.404 137.234 195.404H137.389C137.66 195.287 137.931 195.014 138.203 194.584C138.629 193.92 139.288 193.374 139.288 192.476C139.288 191.578 138.861 191.148 138.551 190.68C139.016 190.406 139.055 190.016 139.21 189.587V189.469L139.52 188.532L140.411 187.517L141.457 186.346C142 186.112 142.426 185.487 142.852 185.096C143.279 184.706 143.86 184.277 144.17 183.886C144.48 183.496 145.449 183.339 145.449 182.52C145.914 182.402 146.301 182.246 146.727 181.856L145.642 181.153C144.441 181.661 143.356 181.973 142.116 182.285L142.775 180.138C142.775 180.802 142.542 181.387 142.31 182.09L145.371 181.036H145.487C145.875 181.036 146.417 181.465 146.688 181.622L150.486 184.081C150.99 184.433 151.377 184.823 151.532 185.331C151.687 185.838 152.152 186.19 152.694 186.19C153.237 186.19 153.741 185.877 153.934 185.448C154.167 184.979 154.089 184.237 153.547 183.964V183.925ZM148.665 175.57C149.013 175.335 149.285 175.062 149.633 174.711L155.097 169.049L160.328 163.818C163.97 160.147 167.496 156.477 170.79 152.456C175.169 147.107 179.315 140.86 182.221 134.535C182.272 134.482 182.324 134.456 182.376 134.456C182.453 134.456 182.376 134.535 182.376 134.73L181.64 136.292C180.593 138.556 179.547 140.664 178.191 142.773C174.471 148.629 170.286 153.939 165.52 158.937L161.878 162.763L153.973 170.728L149.982 174.867C149.595 175.218 149.13 175.492 148.665 175.57ZM146.223 179.162L145.371 179.357V178.498H146.223V179.162ZM172.805 110.601C168.543 115.911 162.769 120.401 157.189 124.227C156.608 124.617 156.957 125.398 156.957 125.906V130.005L156.724 131.255H144.635C153.857 124.578 164.087 116.028 169.55 106.032C169.783 105.603 169.938 105.095 169.628 104.627C167.109 104.861 163.932 105.017 161.529 105.017C159.127 105.017 156.763 104.9 154.593 104.666H154.361C154.089 104.666 153.741 104.744 153.624 104.978C153.237 105.798 154.438 106.032 153.896 109.273C153.353 112.514 152.888 113.295 152.036 115.247C149.052 121.962 142.93 127.389 136.73 131.177C136.614 131.919 136.73 132.621 136.73 133.402L136.885 135.667L137.001 137.346L153.159 137.502C153.857 137.502 154.438 137.58 155.213 137.658C154.477 139.766 153.663 141.875 152.268 143.671C151.455 144.725 151.377 144.803 151.532 144.803C151.532 144.803 151.558 144.803 151.609 144.803C151.687 144.803 151.842 144.803 151.919 144.998C154.322 144.647 156.686 144.452 159.127 144.452C161.568 144.452 164.048 144.647 166.489 144.998C166.954 144.764 166.993 144.178 166.838 143.788C166.411 142.499 166.295 139.805 166.605 138.439L170.402 138.986L171.952 131.255H167.419C168.853 124.032 170.674 117.55 173.657 110.874C173.464 110.718 173.154 110.601 172.921 110.601H172.805ZM152.346 166.941C147.812 162.607 143.627 158.195 139.597 153.471C135.955 149.176 132.855 144.608 129.988 139.805L127.895 135.042C129.213 137.424 130.298 139.649 131.77 142.031C134.793 146.911 138.086 151.402 141.884 155.579H141.806L142.504 156.321L147.076 161.241L152.539 166.707L154.244 164.989C145.41 156.321 137.854 147.692 131.499 137.033C129.058 132.934 126.965 128.795 125.454 124.305C124.447 121.338 123.788 118.448 123.633 115.325C123.633 114.466 123.672 113.334 123.749 112.514C123.749 112.201 123.711 112.084 123.633 112.084C123.478 112.084 123.246 112.319 123.207 112.397C122.781 113.334 122.548 114.973 122.393 116.106C122.122 118.37 122.199 120.518 122.471 122.86C124.059 136.721 133.126 150.035 142.31 160.03L145.061 162.998L150.68 168.659L152.346 166.941ZM175.362 189.43C176.06 188.415 174.975 188.025 174.704 187.088C174.432 186.151 174.51 186.346 173.464 184.94C172.417 183.535 171.797 182.949 170.635 181.661C170.17 181.153 169.744 180.606 169.201 180.294C168.814 180.021 168.698 179.045 168 179.045H167.768L167.419 178.147L166.683 179.123C166.954 179.396 167.419 181.075 167.341 181.387C167.186 181.036 167.031 180.684 166.915 180.333L166.489 179.045L170.131 174.75C170.557 174.242 170.868 173.891 171.604 173.774C171.991 173.696 172.417 173.344 172.495 172.876C172.572 172.407 172.34 171.9 171.952 171.626C171.72 171.47 171.371 171.392 171.139 171.392C170.906 171.392 170.674 171.431 170.441 171.548C170.054 171.704 169.821 172.29 169.744 172.837L163.97 176.546L164.745 175.726L159.32 170.182L157.654 171.861L160.832 175.218C161.025 175.414 161.607 175.531 161.8 175.648H161.645C161.103 175.648 160.56 175.335 160.173 174.945L157.383 172.134L155.756 173.852L160.909 179.084C160.948 179.084 160.793 179.084 161.025 179.084C161.258 179.084 161.568 178.537 161.452 178.264C161.335 177.951 161.297 177.561 161.452 177.288L161.762 178.576L157.771 183.339C157.499 183.652 156.763 183.691 156.376 183.886C155.601 184.316 155.833 185.526 156.376 185.916C156.608 186.073 156.724 186.151 157.151 186.151C157.577 186.151 158.003 185.955 158.274 185.526C158.429 185.292 158.584 184.901 158.7 184.589L164.242 181.036C164.861 181.036 167.07 182.051 167.458 182.051V181.543C167.574 181.739 167.69 182.012 167.768 182.363L164.242 181.309C163.97 181.387 163.544 181.661 163.312 181.817C163.312 182.441 164.125 182.441 164.319 182.676C164.668 183.183 165.21 183.613 165.636 184.003L167.031 185.253C168.775 186.814 167.961 185.994 169.473 187.595C169.705 187.83 170.054 188.376 170.248 188.689H170.131C170.867 189.782 170.248 190.289 171.294 190.641C170.015 191.851 170.403 193.374 171.487 194.428C171.759 194.701 171.875 195.365 172.262 195.365H172.34C172.611 195.365 172.572 195.17 173.27 194.936C174.045 194.662 174.626 194.584 175.207 193.881C175.789 193.179 175.672 192.476 175.672 191.617C175.672 191.265 176.137 190.758 176.021 190.289C175.944 190.016 175.672 189.665 175.324 189.391L175.362 189.43ZM164.59 179.357L163.699 179.24V178.498H164.59V179.357Z" fill="var(--fill-0, white)"/>
</g>
</svg>
