<svg preserveAspectRatio="none" width="100%" height="100%" overflow="visible" style="display: block;" viewBox="0 0 110 214" fill="none" xmlns="http://www.w3.org/2000/svg">
<g id="Group">
<path id="Vector" fill-rule="evenodd" clip-rule="evenodd" d="M86.7158 58.0193C87.3738 58.1365 87.6068 58.9564 87.1418 59.3859L86.6768 59.8544C86.2118 60.3229 85.4758 60.5182 84.8558 60.3229L75.2458 57.5899C75.0518 57.5508 74.9358 57.3165 74.9748 57.1213L75.2068 56.1843C75.2848 55.911 75.5558 55.7548 75.8268 55.7938L86.7158 57.9803V58.0193ZM60.1338 17.0232C60.5598 17.3355 60.7928 17.8821 60.7148 18.4288L58.6618 30.6105C58.6618 30.8838 58.3898 31.04 58.1188 31.0009L57.1888 30.8838C56.9178 30.8838 56.7628 30.6105 56.7628 30.3762L57.7318 16.828C57.7318 16.2032 58.5068 15.8519 59.0098 16.2423L60.0948 17.0232H60.1338ZM70.9838 34.7491C70.8668 34.671 70.8288 34.5149 70.7898 34.3977C70.6738 33.6559 70.9838 32.9141 70.9838 32.9141C71.0608 32.7579 71.1388 32.6017 71.2548 32.3675C71.5648 31.938 71.8748 31.6256 72.6498 31.3523C74.2388 30.7666 74.8588 29.4392 75.2458 27.9555C75.5558 26.7842 75.4398 26.7061 75.9048 25.0272C76.1368 24.2463 76.3308 23.6606 76.7568 23.114C76.9508 22.8798 77.2608 22.4503 77.8418 22.177C78.6948 21.7084 79.5468 21.8256 79.9728 21.9037C80.8258 22.0598 81.5618 22.4503 82.2208 22.9969C82.6858 23.3483 82.6858 23.5826 82.2208 23.973C80.2828 25.8862 78.3848 27.8384 76.4468 29.7515C74.8198 31.3523 73.2308 32.9922 71.6038 34.593C71.5258 34.671 71.2548 34.9834 71.0218 34.9053C70.9448 34.9053 70.9058 34.8272 70.8668 34.8272L70.9448 34.7491H70.9838ZM45.9908 22.9969L48.6258 31.3523C48.7028 31.6256 48.6258 31.938 48.2768 32.0551L47.5798 32.3284C47.3078 32.4455 46.9598 32.3284 46.8428 32.0161L43.9758 24.9881C43.7048 24.3244 43.8208 23.5826 44.2088 23.0359L44.4408 22.6845C44.8668 22.1379 45.7198 22.2941 45.9128 22.9188L45.9908 22.9969ZM43.5888 26.1204L46.3398 32.2894C46.4558 32.6017 46.3398 32.9531 46.0678 33.1093L45.5258 33.4216C45.2548 33.5778 44.9058 33.4997 44.7508 33.2264L42.1548 28.8535C41.7288 28.1117 41.6898 27.2136 42.1548 26.4718L42.3488 26.1204C42.6198 25.6128 43.3558 25.6519 43.5888 26.1204ZM38.1248 35.7643C38.0478 35.8814 37.8928 35.9205 37.7758 35.9595C37.0398 36.0766 36.2648 35.7643 36.2648 35.7643C36.1098 35.6862 35.9158 35.6081 35.7228 35.491C35.2958 35.1786 34.9858 34.8663 34.7148 34.0854C34.1338 32.4846 32.8168 31.8599 31.3048 31.4694C30.1428 31.1571 30.0648 31.2742 28.3598 30.8057C27.5468 30.5714 27.0038 30.3762 26.4618 29.9467C26.2288 29.7515 25.8028 29.4392 25.5318 28.8535C25.0668 27.9945 25.1828 27.1356 25.2608 26.7061C25.4158 25.8471 25.8028 25.1053 26.3458 24.4415C26.6938 23.973 26.9268 23.973 27.3138 24.4415C29.2518 26.3547 31.1498 28.3069 33.0878 30.22C34.7148 31.8208 36.3038 33.4607 37.8928 35.0615C37.9698 35.1396 38.2798 35.4129 38.2028 35.6471C38.2028 35.7252 38.1248 35.7643 38.1248 35.8033V35.7643ZM65.9078 23.114C66.3338 23.6606 66.4108 24.4025 66.1398 25.0662L63.2728 32.0941C63.1568 32.3675 62.8468 32.5236 62.5368 32.4065L61.8388 32.1332C61.5678 32.0161 61.4128 31.7037 61.4898 31.4304L64.1248 23.075C64.3188 22.4112 65.2098 22.2551 65.5978 22.8407L65.8688 23.1921V23.114H65.9078ZM26.0358 20.9276C26.0358 20.9276 26.1128 20.9276 26.1128 21.0447V21.1618C26.1128 21.1618 26.1128 21.2399 25.9968 21.318C25.9968 21.318 25.9188 21.3961 25.8808 21.4351L25.3768 21.9818L24.8338 22.4893C24.8338 22.4893 24.7568 22.5674 24.7178 22.6065C24.6408 22.6845 24.6018 22.7236 24.5628 22.7236H24.4468C24.4468 22.7236 24.3688 22.7236 24.3308 22.6455C24.3308 22.6455 24.3308 22.5674 24.2528 22.4893C24.2528 22.4112 24.2528 21.7865 24.7178 21.318C25.1828 20.8104 25.8028 20.8495 25.8808 20.8495C25.9578 20.8495 26.0358 20.9276 26.0358 20.9276ZM48.7808 19.7953L50.9508 30.7276C50.9508 31.0009 50.8348 31.2742 50.5628 31.3523L49.6328 31.5866C49.4398 31.5866 49.2458 31.5085 49.1678 31.3133L46.4168 21.6694C46.2228 21.0057 46.4168 20.3029 46.8818 19.8343L47.3468 19.3658C47.8118 18.8973 48.5868 19.1315 48.7418 19.7953H48.7808ZM89.4668 46.6185L90.2798 47.7117C90.6678 48.2193 90.2798 48.9611 89.6988 49.0002L76.1758 49.9763C75.9048 49.9763 75.7108 49.8201 75.6718 49.5468L75.5558 48.6097C75.5558 48.3364 75.7108 48.1022 75.9438 48.0631L88.1108 46.0328C88.6528 45.9548 89.1948 46.15 89.5048 46.6185H89.4668ZM51.1058 16.2423C51.6098 15.8519 52.3458 16.2423 52.3838 16.828L53.3528 30.3762C53.3528 30.6495 53.1978 30.8447 52.9268 30.8838L51.9968 31.0009C51.7258 31.0009 51.4928 30.8447 51.4548 30.6105L49.4008 18.4288C49.3228 17.8821 49.5168 17.3355 49.9818 17.0232L51.0668 16.2423H51.1058ZM39.1328 34.7491C39.1328 34.7491 39.0548 34.8272 38.9778 34.8272C38.7448 34.9053 38.4738 34.5539 38.3958 34.5149C36.7688 32.9141 35.1798 31.3133 33.5528 29.6734C31.6148 27.7603 29.7168 25.8081 27.7788 23.8949C27.3918 23.5045 27.3918 23.2702 27.7788 22.9188C28.4378 22.3722 29.1738 21.9818 30.0268 21.8256C30.4528 21.7475 31.3048 21.6304 32.1578 22.0989C32.6998 22.3722 33.0488 22.8017 33.2428 23.0359C33.6688 23.5826 33.8628 24.1682 34.0948 24.9491C34.5598 26.628 34.4438 26.7061 34.7538 27.8774C35.1408 29.3611 35.7608 30.6886 37.3498 31.2742C38.1248 31.5475 38.4348 31.8599 38.7448 32.2894C38.8998 32.4846 38.9388 32.6408 39.0158 32.836C39.0158 32.836 39.3648 33.6169 39.2098 34.3196C39.2098 34.4758 39.1318 34.593 39.0158 34.671L39.0938 34.7491H39.1328ZM83.3058 21.3961C83.3058 21.3961 83.3828 21.3961 83.4988 21.5523C83.8868 21.9037 84.0418 22.0989 84.3128 22.3332C84.5838 22.6065 84.7388 22.7626 85.1268 23.1531C85.2428 23.2702 85.2818 23.3093 85.2818 23.3483C85.5918 23.8168 85.5528 24.4806 85.2818 24.5977H85.1268C84.9718 24.5977 84.8168 24.4806 84.7778 24.4415C84.2358 23.934 83.8088 23.5045 83.4608 23.1531C83.1118 22.8017 82.6858 22.3332 82.1818 21.8256C82.1818 21.8256 82.0268 21.6694 82.0268 21.4742V21.318C82.1428 21.0837 82.8408 21.0057 83.2668 21.318V21.3961H83.3058ZM40.8368 34.0854C41.2638 33.6559 41.7288 33.6559 42.1548 34.0854C42.5418 34.4758 42.5808 34.9444 42.1548 35.3738C41.6118 35.9205 41.0308 36.5061 40.4498 37.0527C39.9068 37.6384 39.3258 38.185 38.7838 38.7707C38.3578 39.2001 37.8928 39.1611 37.5048 38.7707C37.0788 38.3412 37.0788 37.8727 37.5048 37.4432C38.0478 36.8966 38.6288 36.3109 39.1708 35.7643C39.7138 35.2177 40.2948 34.632 40.8368 34.0854ZM24.9508 26.3937C24.8728 26.667 24.7958 26.9403 24.7568 27.2136C24.4858 28.5411 24.9118 29.6344 25.9578 30.5324C26.7718 31.1961 27.7018 31.5085 28.7088 31.7037C29.6778 31.8989 30.6848 32.0941 31.6538 32.2894C32.9708 32.6017 33.8628 33.3826 34.3278 34.632C34.5598 35.1786 34.8308 35.5691 35.2188 35.8814C35.6058 36.1938 36.1878 36.428 36.8458 36.5061H36.9628C36.9628 36.5061 37.1178 36.5061 37.1558 36.5842C37.1558 36.7404 37.0788 36.8185 37.0008 36.8966C36.6528 37.2089 36.1878 37.287 36.1488 37.287C34.7928 37.5603 33.9398 37.0137 33.5528 35.6862C33.5528 35.491 33.4358 35.2957 33.3978 35.1396C33.2038 34.2025 32.5838 33.6949 31.6928 33.5778C30.6468 33.4607 29.5998 33.4997 28.5538 33.4216C27.8948 33.4216 27.1978 33.3045 26.5388 33.1093C24.6408 32.5236 23.6328 31.0009 23.8268 29.0097C23.9038 28.1897 24.0978 27.3698 24.5628 26.628C24.5628 26.628 24.5628 26.5499 24.6408 26.5499C24.7568 26.3547 24.8338 26.2766 24.9118 26.3156V26.3937H24.9508ZM86.6768 43.534L87.1418 44.0026C87.6068 44.4711 87.3738 45.252 86.7158 45.3691L75.8268 47.5556C75.5558 47.5946 75.2848 47.4384 75.2068 47.1651L74.9748 46.2281C74.9748 46.0328 75.0518 45.8376 75.2458 45.7595L84.8558 43.0265C85.5138 42.8312 86.2118 43.0265 86.6768 43.495V43.534ZM92.4118 51.1866C92.4118 51.3428 92.4118 51.499 92.4118 51.6942C92.4118 51.8894 92.4118 52.0456 92.4118 52.2018C92.2568 53.0217 91.4818 53.6074 90.6678 53.5683L76.1368 52.8655C75.9438 52.8655 75.7498 52.6703 75.7498 52.4751V50.9133C75.7498 50.7181 75.9048 50.5229 76.1368 50.5229L90.6678 49.8201C91.5198 49.7811 92.2568 50.3667 92.4118 51.1866ZM55.0578 33.9292H54.9808C51.1058 33.9292 47.5018 35.1786 44.5958 37.287L45.0608 37.5603C45.5258 37.7946 45.9518 38.1069 46.3778 38.4193C48.8578 40.2934 50.4078 43.1045 50.6798 46.189L51.5318 53.4902L50.7958 53.4121C50.1368 53.4121 49.5948 53.8807 49.4778 54.5054C49.4008 54.8568 49.4778 55.2082 49.6718 55.5205C49.8658 55.8329 50.1758 56.0281 50.5628 56.1062L51.3378 56.2624C51.6098 55.7157 51.9198 55.1301 52.2298 54.5054C53.1208 52.2408 53.9338 49.7811 53.8958 47.1261C53.8958 45.6814 53.7788 44.1978 53.6628 42.7531C53.5858 41.3866 53.4688 40.0201 53.4688 38.6145C53.4688 37.2089 53.4688 37.9507 53.5858 37.4822C53.7788 36.3499 54.2058 35.2567 54.8258 34.2416L55.0578 33.8511V33.9292ZM46.8048 60.3229H50.0208C50.0208 59.6592 50.1368 59.0345 50.2918 58.3707L49.7878 58.2536C48.5868 57.9412 47.6178 57.0042 47.2308 55.8329H46.8048V60.3229ZM44.5568 37.326C40.1398 40.5667 37.2728 45.7986 37.2728 51.6942C37.2728 61.4942 45.2158 69.4592 54.9808 69.4592C64.7448 69.4592 72.6888 61.4942 72.6888 51.6942C72.6888 41.8942 69.8598 40.6448 65.5198 37.4041V62.7046H59.7848C59.0098 64.8911 57.8478 66.7652 56.3368 68.2879C55.9878 68.6393 55.6388 68.9516 55.2908 69.225L55.0968 69.3811L54.9028 69.225C54.5538 68.9126 54.1668 68.6003 53.8568 68.2879C52.3068 66.7652 51.1448 64.8911 50.4078 62.7046H44.6738V37.287H44.5568V37.326ZM52.2298 60.4401H53.9728V60.2839C53.8178 59.5811 53.2758 58.9954 52.6168 58.7612H52.5008C52.5008 58.7221 52.5008 58.8393 52.5008 58.8393C52.3838 59.3078 52.3068 59.8154 52.3068 60.2839V60.401H52.2298V60.4401ZM60.0568 60.3229H63.2728V55.8329H62.8468C62.4588 57.0042 61.4898 57.9412 60.2888 58.2536L59.7848 58.3707C59.9398 58.9954 60.0178 59.6592 60.0568 60.3229ZM55.0188 57.746C55.4068 57.3556 55.8718 57.0042 56.4138 56.809C55.8718 55.8329 55.4068 54.7787 55.0188 53.7245C54.6318 54.7787 54.1668 55.7938 53.6238 56.809C54.1668 57.0432 54.6318 57.3556 55.0188 57.746ZM65.4038 37.3651C62.4978 35.2567 58.9718 33.9683 55.1358 33.9683L55.3678 34.3587C55.9488 35.3738 56.3368 36.4671 56.5308 37.5603C56.6078 38.0679 56.6468 38.4193 56.6468 38.6926C56.6468 40.0591 56.5308 41.4647 56.4528 42.8312C56.3368 44.2759 56.2588 45.7205 56.2208 47.2042C56.1428 49.8591 56.9958 52.3189 57.8868 54.5835C58.1968 55.2082 58.4678 55.7938 58.7778 56.3404L59.5528 56.1843C59.9018 56.1062 60.2118 55.911 60.4438 55.5986C60.6378 55.2863 60.7148 54.9349 60.6378 54.5835C60.5218 53.9588 59.9398 53.4902 59.3198 53.4902L58.5838 53.5683L59.4748 46.2671C59.7468 43.1826 61.3348 40.3715 63.7768 38.4974C64.2028 38.185 64.6288 37.9117 65.0938 37.6384L65.4808 37.4041H65.4038V37.3651ZM46.8048 53.4512H47.2308C47.5018 52.5922 48.1218 51.8504 48.8968 51.3819L48.2378 45.8376C48.0828 44.4711 47.5798 43.1826 46.8048 42.0504V53.4512ZM54.0118 65.4767V62.5484H52.5008V62.7046C52.8108 63.6026 53.1978 64.4225 53.7788 65.1644L54.0118 65.4767ZM56.0658 60.4401H57.8088V60.3229C57.8088 59.8544 57.6928 59.3468 57.5768 58.8783V58.7612H57.4218C56.7238 58.9954 56.2208 59.6201 56.0658 60.3229V60.4791V60.4401ZM56.0658 65.4767L56.2978 65.1644C56.8408 64.4225 57.2668 63.6026 57.5378 62.7046V62.5484H56.0658V65.4767ZM62.8468 53.4512H63.2728V42.0504C62.4978 43.1826 61.9938 44.4711 61.8388 45.8376L61.1798 51.3819C61.9938 51.8504 62.5748 52.5922 62.8468 53.4512ZM54.9808 31.6647C66.0238 31.6647 74.9358 40.6448 74.9358 51.6942C74.9358 62.7437 65.9848 71.7238 54.9808 71.7238C43.9758 71.7238 35.0248 62.7437 35.0248 51.6942C35.0248 40.6448 43.9758 31.6647 54.9808 31.6647ZM80.0898 38.7316L80.4378 38.9268C80.9418 39.2001 80.9028 39.942 80.4378 40.1762L74.3158 42.9484C74.0058 43.0655 73.6568 42.9484 73.5018 42.6751L73.1918 42.1284C73.0368 41.8551 73.1148 41.5037 73.3858 41.3476L77.7258 38.7707C78.4618 38.3412 79.3528 38.3021 80.0898 38.7707H80.1278L80.0898 38.7316ZM26.5008 40.84C27.0818 40.4105 27.8178 40.3324 28.4378 40.6057L35.4508 43.4559C35.7228 43.5731 35.8778 43.8854 35.7608 44.1978L35.4898 44.9006C35.3738 45.1739 35.0638 45.33 34.7928 45.2129L26.4618 42.597C25.8028 42.4017 25.6478 41.5037 26.2288 41.1133L26.5778 40.879H26.5008V40.84ZM26.4228 60.7915L34.7538 58.1755C35.0248 58.0974 35.3348 58.2146 35.4508 58.4879L35.7228 59.1907C35.8388 59.464 35.7228 59.8154 35.4128 59.9325L28.3988 62.7827C27.7398 63.056 27.0038 62.9389 26.4618 62.5484L26.1128 62.3142C25.5708 61.8847 25.6868 61.0257 26.3458 60.8305H26.4228V60.7915ZM55.5618 89.2545C55.4068 89.2545 55.2518 89.2936 55.0578 89.2936C54.8638 89.2936 54.7088 89.2936 54.5538 89.2545C53.7408 89.0983 53.1588 88.3175 53.1978 87.4975L53.8958 72.9341C53.8958 72.7389 54.0888 72.5827 54.2828 72.5437H55.8328C56.0268 72.5437 56.2208 72.6999 56.2208 72.9341L56.9178 87.4975C56.9178 88.3565 56.3758 89.0983 55.5618 89.2545ZM63.1948 83.515L62.7298 83.9836C62.2648 84.4521 61.4898 84.2178 61.3348 83.5541L59.1648 72.6218C59.1648 72.3485 59.2818 72.0752 59.5528 71.9971L60.4828 71.7628C60.6768 71.7238 60.8698 71.8409 60.9478 72.0361L63.6988 81.68C63.8928 82.3437 63.6988 83.0465 63.2338 83.515H63.1948ZM29.8328 21.5132H29.7548C29.7548 21.5132 29.8328 21.3961 29.9878 21.2399C29.9878 21.2399 30.0648 21.2399 30.0648 21.1618C30.8018 20.6933 31.6148 20.4981 32.4288 20.42C34.4048 20.2248 35.9548 21.2399 36.4978 23.1531C36.6908 23.8168 36.7688 24.4806 36.8078 25.1834C36.8848 26.2375 36.8078 27.2917 36.9628 28.3459C37.0788 29.2439 37.5828 29.8686 38.5128 30.0639C38.7058 30.0639 38.8998 30.1419 39.0548 30.22C40.3718 30.6105 40.9148 31.4694 40.6818 32.7969C40.6818 32.7969 40.6048 33.3045 40.2948 33.6559C40.2168 33.734 40.1398 33.8121 40.0238 33.8121C39.9458 33.8121 39.9458 33.6559 39.9458 33.6169V33.4997C39.8688 32.875 39.6358 32.2503 39.3258 31.8989C39.0158 31.5085 38.5898 31.1961 38.0858 31.0009C36.8458 30.4933 36.0708 29.5953 35.7608 28.3069C35.5288 27.3308 35.3738 26.3547 35.1798 25.3395C34.9858 24.3634 34.6758 23.3873 34.0178 22.6065C33.1648 21.5523 32.0798 21.1228 30.7238 21.3961C30.4528 21.3961 30.1818 21.5132 29.9098 21.5913V21.5132H29.8328ZM60.1338 86.3262L59.0488 87.1071C58.5448 87.4975 57.8088 87.1461 57.7708 86.5214L56.8018 72.9732C56.8018 72.6999 56.9568 72.5046 57.2278 72.4656L58.1578 72.3485C58.4288 72.3485 58.6618 72.5046 58.6998 72.7389L60.7538 84.9206C60.8318 85.4672 60.6378 86.0139 60.1728 86.3262H60.1338ZM48.7808 83.5541C48.6648 84.1788 47.8508 84.4521 47.3858 83.9836L46.9208 83.515C46.4558 83.0465 46.2618 82.3437 46.4558 81.68L49.2068 72.0361C49.2068 71.8409 49.4778 71.7238 49.6718 71.7628L50.6018 71.9971C50.8728 72.0752 51.0278 72.3485 50.9898 72.6218L48.8198 83.5541H48.7808ZM65.9078 80.2744L65.6358 80.6258C65.2098 81.1724 64.3578 81.0162 64.1638 80.3915L61.5288 72.0361C61.4518 71.7628 61.5288 71.4505 61.8778 71.3333L62.5748 71.06C62.8468 70.9429 63.1948 71.06 63.3118 71.3724L66.1788 78.4003C66.4498 79.064 66.3338 79.8059 65.9458 80.3525V80.2744H65.9078ZM67.9998 76.9166L67.8058 77.268C67.5348 77.7756 66.7988 77.7365 66.5658 77.229L63.8148 71.06C63.6988 70.7477 63.8148 70.3963 64.0868 70.2401L64.6288 69.9277C64.8998 69.7716 65.2488 69.8497 65.4038 70.123L67.9998 74.4959C68.4258 75.2377 68.4648 76.1357 67.9998 76.8776V76.9166ZM26.8098 77.4632L29.2898 79.923C29.4448 80.0792 29.3678 80.3134 29.1738 80.3915C28.3988 80.7039 27.4688 80.5087 26.8488 79.884C26.2288 79.2593 26.0358 78.3222 26.3458 77.5413C26.4228 77.3461 26.6548 77.3071 26.8098 77.4242V77.4632ZM33.6688 77.0337C33.8238 77.1899 33.8238 77.4242 33.6688 77.5804L32.9708 78.2832C32.8168 78.4393 32.5838 78.4393 32.4288 78.2832L28.4768 74.3397C28.3218 74.1835 28.3218 73.9493 28.4768 73.7931L29.1738 73.0903C29.3288 72.9341 29.5618 72.9341 29.7168 73.0903L33.6688 77.0337ZM33.5528 75.8624L30.8788 73.2074C30.7238 73.0513 30.7238 72.817 30.8788 72.6608L36.8078 66.7261C36.9628 66.57 37.1948 66.57 37.3498 66.7261L40.0238 69.3811C40.1788 69.5373 40.1788 69.7716 40.0238 69.9277L34.0948 75.8624C33.9398 76.0186 33.7078 76.0186 33.5528 75.8624ZM41.6118 69.303C41.1858 69.303 40.8368 69.1469 40.5268 68.8345L40.3338 68.6393C39.9458 68.2489 39.5968 67.8975 39.2098 67.507L38.0478 66.3357L37.8928 66.1795C37.4658 65.75 37.3498 65.1644 37.5438 64.4616C37.6598 64.0711 37.8148 63.954 37.9698 63.915C38.0858 63.915 38.2798 63.915 38.5128 64.1102C38.5128 64.1492 42.5808 68.2489 42.5808 68.2489C42.7748 68.4831 42.7748 68.6783 42.7748 68.7955C42.7748 68.9126 42.6198 69.1078 42.2318 69.225C41.9998 69.303 41.8058 69.303 41.6118 69.303ZM17.5108 51.1866C17.6658 50.3667 18.4408 49.7811 19.2548 49.8201L33.7848 50.5229C33.9788 50.5229 34.1728 50.7181 34.1728 50.9133V52.4751C34.1728 52.6703 34.0178 52.8655 33.7848 52.8655L19.2548 53.5683C18.4018 53.6074 17.6658 53.0217 17.5108 52.2018C17.5108 52.0456 17.5108 51.8894 17.5108 51.6942C17.5108 51.499 17.5108 51.3428 17.5108 51.1866ZM20.4558 46.6185C20.7658 46.189 21.3078 45.9548 21.8508 46.0328L34.0178 48.0631C34.2888 48.1022 34.4438 48.3364 34.4048 48.6097L34.2888 49.5468C34.2888 49.8201 34.0178 49.9763 33.7848 49.9763L20.2618 49.0002C19.6028 48.9611 19.2928 48.2193 19.6808 47.7117L20.4948 46.6185H20.4558ZM19.6808 55.6767C19.2928 55.1691 19.6808 54.4273 20.2618 54.3882L33.7848 53.4121C34.0558 53.4121 34.2498 53.5683 34.2888 53.8416L34.4048 54.7787C34.4048 55.052 34.2498 55.2863 34.0178 55.3253L21.8508 57.3556C21.3078 57.4337 20.7658 57.2385 20.4558 56.7699L19.6418 55.6767H19.6808ZM23.2838 43.534C23.7488 43.0655 24.4858 42.8703 25.1058 43.0655L34.7148 45.7986C34.9088 45.8376 35.0248 46.0719 34.9858 46.2671L34.7538 47.2042C34.6758 47.4775 34.4048 47.6336 34.1338 47.5946L23.2458 45.4081C22.5868 45.291 22.3538 44.4711 22.8188 44.0416L23.2838 43.5731V43.534ZM23.2068 58.0193L34.0948 55.8329C34.3658 55.7938 34.6378 55.95 34.7148 56.2233L34.9478 57.1604C34.9478 57.3556 34.8698 57.5508 34.6758 57.6289L25.0668 60.362C24.4078 60.5572 23.7108 60.362 23.2458 59.8934L22.7808 59.4249C22.3158 58.9564 22.5478 58.1755 23.2068 58.0584V58.0193ZM29.8718 38.7316C30.6078 38.3412 31.5378 38.3412 32.2348 38.7316L36.5748 41.3085C36.8458 41.4647 36.9238 41.8161 36.7688 42.0894L36.4588 42.636C36.3038 42.9093 35.9548 43.0265 35.6448 42.9093L29.5228 40.1372C28.9798 39.9029 28.9798 39.1611 29.5228 38.8878L29.8718 38.6926H29.9098L29.8718 38.7316ZM29.5228 63.1731L35.6448 60.401C35.9548 60.2839 36.3038 60.401 36.4588 60.6743L36.7688 61.2209C36.9238 61.4942 36.8458 61.8456 36.5748 62.0018L32.2348 64.5787C31.4988 65.0082 30.6078 65.0473 29.8718 64.6178L29.5228 64.4225C29.0188 64.1492 29.0578 63.4074 29.5228 63.1731ZM51.1058 87.1071L50.0208 86.3262C49.5948 86.0139 49.3618 85.4672 49.4398 84.9206L51.4928 72.7389C51.4928 72.4656 51.7648 72.3094 52.0358 72.3485L52.9658 72.4656C53.2368 72.4656 53.3918 72.7389 53.3918 72.9732L52.4228 86.5214C52.4228 87.1461 51.6478 87.4975 51.1448 87.1071H51.1058ZM63.1948 19.8343C63.6598 20.3029 63.8538 21.0057 63.6598 21.6694L60.9088 31.3133C60.9088 31.5085 60.6378 31.6256 60.4438 31.5866L59.5138 31.3523C59.2428 31.2742 59.0878 31.0009 59.1268 30.7276L61.2968 19.7953C61.4128 19.1706 62.2268 18.8973 62.6918 19.3658L63.1568 19.8343H63.1948ZM55.5618 14.0949C56.3758 14.251 56.9568 15.0319 56.9178 15.8519L56.2208 30.4153C56.2208 30.6105 56.0268 30.7666 55.8328 30.8057H54.2828C54.0888 30.8057 53.8958 30.6495 53.8958 30.4153L53.1978 15.8519C53.1978 14.9929 53.7408 14.251 54.5538 14.0949C54.7088 14.0949 54.8638 14.0949 55.0578 14.0949C55.2518 14.0949 55.4068 14.0949 55.5618 14.1339V14.0949ZM83.4218 40.84L83.7708 41.0743C84.3128 41.5037 84.1968 42.3627 83.5378 42.5579L75.2068 45.1739C74.9358 45.252 74.6258 45.1348 74.5098 44.8615L74.2388 44.1587C74.1218 43.8854 74.2388 43.534 74.5488 43.4169L81.5618 40.5667C82.2208 40.2934 82.9568 40.4105 83.4988 40.801H83.4218V40.84ZM43.5888 77.229C43.3558 77.7756 42.6198 77.7756 42.3488 77.268L42.1548 76.9166C41.7288 76.1748 41.7668 75.2768 42.1548 74.5349L44.7508 70.162C44.9058 69.8887 45.2548 69.8106 45.5258 69.9668L46.0678 70.2791C46.3398 70.4353 46.4558 70.7867 46.3398 71.0991L43.5888 77.268V77.229ZM80.3218 21.5132C80.0508 21.4351 79.7798 21.3571 79.5078 21.318C78.1518 21.0447 77.0668 21.4742 76.2148 22.5284C75.5558 23.3093 75.2458 24.2854 75.0518 25.2614C74.8588 26.2375 74.6648 27.2527 74.4708 28.2288C74.1608 29.5172 73.3858 30.4153 72.1458 30.9228C71.6038 31.1571 71.1768 31.4304 70.9058 31.8208C70.5958 32.1722 70.3638 32.7969 70.2858 33.4216V33.5388C70.2858 33.5388 70.2858 33.6949 70.2088 33.734C70.0918 33.734 70.0148 33.6559 69.9378 33.5778C69.6278 33.2264 69.5498 32.7579 69.5498 32.7188C69.2788 31.3523 69.8208 30.4933 71.1768 30.1419C71.3708 30.1419 71.5648 30.0248 71.7198 29.9858C72.6498 29.7905 73.1538 29.1658 73.2698 28.2678C73.3858 27.2136 73.3468 26.1595 73.4248 25.1053C73.4248 24.4415 73.5408 23.7387 73.7348 23.075C74.3158 21.1618 75.8268 20.1857 77.8028 20.3419C78.6558 20.42 79.4698 20.6152 80.1668 21.0837C80.1668 21.0837 80.2448 21.0837 80.2448 21.1618C80.4378 21.279 80.5158 21.3571 80.4768 21.4351H80.3998V21.5132H80.3218ZM78.1128 78.7907L81.9878 74.8863C82.1428 74.7302 82.4148 74.7302 82.6078 74.8863L83.2668 75.5501C83.4218 75.7063 83.4218 75.9796 83.2668 76.1357L79.3918 80.0401C79.2368 80.1963 78.9658 80.1963 78.7718 80.0401L78.1128 79.3764C77.9578 79.2202 77.9578 78.9469 78.1128 78.7907ZM84.0808 20.9276C84.0808 20.9276 84.1578 20.9276 84.2358 20.8495C84.3128 20.8495 84.9328 20.8495 85.3978 21.318C85.9018 21.7865 85.8628 22.4112 85.8628 22.4893C85.8628 22.5674 85.7858 22.6455 85.7858 22.6455C85.7858 22.6455 85.7858 22.7236 85.6688 22.7236H85.5528C85.5528 22.7236 85.4758 22.7236 85.3978 22.6065C85.3978 22.6065 85.3208 22.5284 85.2818 22.4893L84.7388 21.9818L84.2358 21.4351C84.2358 21.4351 84.1578 21.3571 84.1188 21.318C84.0418 21.2399 84.0028 21.2009 84.0028 21.1618V21.0447C84.0028 21.0447 84.0028 20.9666 84.0808 20.9276ZM69.3178 34.0854C69.8598 34.632 70.4408 35.2177 70.9838 35.7643C71.5258 36.3109 72.1068 36.8966 72.6498 37.4432C73.0758 37.8727 73.0758 38.3021 72.6498 38.7707C72.2238 39.1611 71.7968 39.2001 71.3708 38.7707C70.7898 38.224 70.2478 37.6384 69.7048 37.0527C69.1238 36.5061 68.5808 35.9595 67.9998 35.3738C67.5738 34.9444 67.6128 34.5149 67.9998 34.0854C68.4258 33.6559 68.8908 33.6559 69.3178 34.0854ZM85.2038 26.3937V26.3156C85.2038 26.3156 85.3208 26.3937 85.4758 26.5499C85.4758 26.5499 85.4758 26.628 85.5528 26.628C86.0178 27.3308 86.2118 28.1507 86.2888 29.0097C86.4828 31.0009 85.4758 32.5236 83.5768 33.1093C82.9178 33.3045 82.2598 33.3826 81.5618 33.4216C80.5158 33.4997 79.4698 33.4216 78.4228 33.5778C77.5318 33.6949 76.9118 34.2025 76.7178 35.1396C76.7178 35.3348 76.6408 35.53 76.5628 35.6862C76.1758 37.0137 75.3238 37.5603 73.9668 37.287C73.9668 37.287 73.4638 37.2089 73.1148 36.8966C73.0368 36.8185 72.9598 36.7404 72.9598 36.6232C72.9598 36.5061 73.1148 36.5061 73.1538 36.5061H73.2698C73.8898 36.428 74.5098 36.1938 74.8968 35.8814C75.2848 35.5691 75.5948 35.1396 75.7888 34.632C76.2918 33.3826 77.1828 32.6017 78.4618 32.2894C79.4308 32.0551 80.4378 31.8989 81.4068 31.7037C82.4148 31.5085 83.3438 31.1961 84.1578 30.5324C85.2038 29.6734 85.6308 28.5802 85.3588 27.2136C85.3588 26.9403 85.2428 26.667 85.1658 26.3937H85.2038ZM67.4578 68.2489L71.4868 64.1883C71.8748 63.7978 72.2238 63.915 72.3788 64.4616C72.5338 65.0472 72.4948 65.6329 72.0298 66.1405C71.6038 66.57 71.1388 67.0385 70.7118 67.468C70.2858 67.8975 69.8208 68.366 69.3948 68.7955C68.9298 69.264 68.3488 69.303 67.7288 69.1469C67.1858 68.9907 67.0698 68.6393 67.4578 68.2489ZM67.9998 26.4718C68.4258 27.2136 68.3878 28.1117 67.9998 28.8535L65.4038 33.2264C65.2488 33.4997 64.8998 33.5778 64.6288 33.4216L64.0868 33.1093C63.8148 32.9531 63.6988 32.6017 63.8148 32.2894L66.5658 26.1204C66.7988 25.5738 67.5348 25.5738 67.8058 26.1204L67.9998 26.4718ZM83.1508 77.4632C83.3058 77.3461 83.4988 77.3851 83.5768 77.5413C83.8868 78.3222 83.7318 79.2593 83.0728 79.923C82.4528 80.5477 81.5228 80.7429 80.7098 80.4306C80.5158 80.3525 80.4768 80.1182 80.6318 80.0011L83.1508 77.5023V77.4632ZM90.2798 55.6767L89.4668 56.7699C89.1568 57.1994 88.6138 57.4337 88.0718 57.3556L75.9048 55.3253C75.6338 55.2863 75.4788 55.052 75.5168 54.7787L75.6338 53.8416C75.6338 53.5683 75.9048 53.4121 76.1368 53.4121L89.6598 54.3882C90.3188 54.4273 90.6288 55.1691 90.2418 55.6767H90.2798ZM80.3998 63.1731C80.9418 63.4074 80.9418 64.1492 80.3998 64.4225L80.0508 64.6178C79.3148 65.0082 78.3848 65.0082 77.6868 64.5787L73.3468 62.0018C73.0758 61.8456 72.9988 61.4942 73.1538 61.2209L73.4638 60.6743C73.6188 60.401 73.9668 60.2839 74.2768 60.401L80.3998 63.1731ZM76.3698 75.8624C76.2148 76.0186 75.9818 76.0186 75.8268 75.8624L69.8598 69.8887C69.7048 69.7325 69.7048 69.4983 69.8598 69.3421L72.5338 66.6481C72.6888 66.4919 72.9208 66.4919 73.0758 66.6481L79.0428 72.6218C79.1978 72.778 79.1978 73.0122 79.0428 73.1684L76.3698 75.8624ZM83.5378 60.7915C84.1968 60.9867 84.3518 61.8847 83.7708 62.2751L83.4218 62.5094C82.8408 62.9389 82.1048 63.017 81.4848 62.7437L74.4708 59.8934C74.1998 59.7763 74.0448 59.464 74.1608 59.1516L74.4318 58.4488C74.5488 58.1755 74.8588 58.0193 75.1298 58.1365L83.4608 60.7524H83.5378V60.7915ZM72.0298 35.7643C72.0298 35.7643 71.9518 35.6862 71.9518 35.6081C71.8748 35.3738 72.2238 35.1005 72.2618 35.0224C73.8508 33.3826 75.4788 31.7818 77.0668 30.181C79.0048 28.2678 80.9028 26.3156 82.8408 24.4025C83.2278 24.012 83.4608 24.012 83.8088 24.4025C84.3518 25.0662 84.7388 25.8081 84.8938 26.667C84.9718 27.0965 85.0878 27.9555 84.6228 28.8145C84.3128 29.3611 83.9258 29.6734 83.6928 29.9077C83.1508 30.3372 82.5698 30.5324 81.7948 30.7666C80.1278 31.2352 80.0508 31.118 78.8498 31.4304C77.3768 31.8208 76.0208 32.4455 75.4398 34.0463C75.1298 34.8272 74.8588 35.1396 74.4318 35.4519C74.2388 35.6081 74.0838 35.6471 73.8898 35.7252C73.8898 35.7252 73.1148 36.0766 72.3788 35.9205C72.2238 35.9205 72.1068 35.8424 72.0298 35.7252V35.7643ZM45.9908 80.3525C45.7968 81.0162 44.9058 81.1724 44.5188 80.5867L44.2858 80.2354C43.8598 79.6887 43.7818 78.9469 44.0538 78.2832L46.9208 71.2552C47.0368 70.9819 47.3468 70.8258 47.6568 70.9429L48.3548 71.2162C48.6258 71.3333 48.7808 71.6457 48.7028 71.919L46.0678 80.2744L45.9908 80.3525ZM76.2918 77.0337L80.2448 73.0903C80.3998 72.9341 80.6318 72.9341 80.7868 73.0903L81.4848 73.7931C81.6398 73.9493 81.6398 74.1835 81.4848 74.3397L77.5318 78.2832C77.3768 78.4393 77.1448 78.4393 76.9898 78.2832L76.2918 77.5804C76.1368 77.4242 76.1368 77.1899 76.2918 77.0337ZM26.8098 21.3961C27.2748 21.0837 27.9338 21.1228 28.0498 21.3961V21.5523C28.0498 21.7084 27.9338 21.8646 27.8948 21.9037C27.3918 22.4503 26.9648 22.8798 26.6168 23.2312C26.2678 23.5826 25.8028 24.012 25.2988 24.5196C25.2988 24.5196 25.1058 24.6758 24.9508 24.6758H24.7958C24.5628 24.5587 24.4858 23.8559 24.7958 23.4264C24.7958 23.4264 24.7958 23.3483 24.9508 23.2312C25.2988 22.8407 25.4928 22.6845 25.7638 22.4112C26.0358 22.1379 26.1908 21.9818 26.5778 21.6304C26.6938 21.5132 26.7328 21.4742 26.7718 21.4742V21.3961H26.8098ZM31.8478 78.7907C32.0028 78.9469 32.0028 79.2202 31.8478 79.3764L31.1888 80.0401C31.0338 80.1963 30.7628 80.1963 30.5688 80.0401L26.6938 76.1357C26.5388 75.9796 26.5388 75.7063 26.6938 75.5501L27.3528 74.8863C27.5078 74.7302 27.7788 74.7302 27.9728 74.8863L31.8478 78.7907ZM98.5728 20.3419C87.1028 5.9347 71.8748 0 54.9808 0C38.0858 0 22.8578 5.9347 11.3888 20.3419C-0.546097 34.1244 -0.856099 52.1627 0.616801 69.4202C2.7088 106.278 14.7598 152.35 32.6228 187.216C37.2338 194.868 45.0998 214 55.0968 214C65.0548 213.766 72.8048 194.829 77.3768 187.216C95.2398 152.35 107.291 106.278 109.383 69.4202C110.856 52.1627 110.546 34.1244 98.6108 20.3419H98.5728ZM104.695 69.0297V69.1078V69.1859C102.719 103.896 91.8298 145.829 76.5628 178.275C76.7178 178.587 76.7958 178.978 76.6798 179.407C76.8738 179.641 77.0668 179.954 77.1448 180.266C77.2998 180.891 77.0668 181.437 76.9118 181.789C76.9118 181.867 76.8348 181.945 76.8348 181.984V182.374C76.8348 183.077 76.8348 183.936 76.1368 184.756C75.4398 185.537 74.7418 185.771 74.1218 185.966C74.0058 185.966 73.8898 186.045 73.7738 186.084C73.5408 186.162 73.4638 186.24 73.3858 186.279C73.2308 186.396 72.9598 186.591 72.5338 186.591H72.3398C71.6808 187.762 70.9838 189.051 70.2858 190.417C68.0778 194.595 65.3258 199.749 62.3038 203.692C59.5138 207.323 56.9958 209.276 54.9808 209.354C53.0038 209.354 50.4468 207.402 47.6568 203.77C44.6348 199.827 41.8448 194.595 39.5968 190.378C38.8998 189.051 38.2028 187.762 37.5438 186.591C37.4658 186.591 37.3888 186.591 37.2338 186.591C36.6528 186.591 36.3038 186.279 36.0708 186.084C35.2578 185.888 34.5208 185.498 33.9008 184.912C33.0878 184.209 33.1648 183.272 33.1648 182.687V182.335C32.6998 181.242 32.8938 180.461 33.0878 179.837C33.1268 179.719 33.2038 179.563 33.2038 179.407L33.2818 179.173C33.3198 178.939 33.3978 178.743 33.4368 178.509C18.0918 146.024 7.16481 103.974 5.18881 69.1859V69.1078V69.0297C3.79381 52.7484 3.9878 35.9205 14.8368 23.4264L14.9148 23.3483V23.2702C20.0298 16.906 26.1128 12.1427 33.0098 9.0582C39.4808 6.1689 46.8818 4.6853 54.9808 4.6853C71.7198 4.6853 85.1658 10.9714 94.9688 23.2702L95.0468 23.3483L95.1238 23.4264C105.935 35.9205 106.167 52.7484 104.772 69.0297H104.695ZM53.5468 174.175C53.1978 173.98 52.6938 173.863 52.2678 173.746L48.1608 168.865L48.5868 167.421C48.9748 167.889 48.3158 168.24 48.5868 169.099C48.5868 169.178 48.8198 169.295 48.9748 169.295C49.1298 169.295 49.0908 169.295 49.1298 169.295L61.0248 157.152L67.7678 150.124C72.8048 144.853 78.7328 136.654 82.0268 130.094C84.5838 125.019 86.5218 119.709 87.2968 114.047C87.6458 111.666 87.8778 109.44 87.5678 107.098L87.2578 104.716C87.2188 104.286 86.8708 102.803 86.5608 102.647H86.4828C86.4058 102.647 86.1338 102.764 86.1338 102.842L86.2118 104.911C86.5608 118.108 71.7588 138.684 62.8468 147.82L54.5928 156.293L45.0608 166.054C45.2938 166.444 45.7588 166.601 46.4168 166.601L45.8748 166.796C45.7198 166.796 45.5258 166.562 45.3708 166.483L40.8758 163.633C40.3718 163.321 40.0618 162.97 39.9458 162.423C39.8298 161.876 39.1708 161.642 38.6678 161.642C38.2028 161.642 37.6988 161.759 37.4658 162.54C37.2338 163.321 37.6988 163.985 38.5128 164.102C38.7448 164.102 39.2098 164.297 39.3648 164.492L43.2788 169.138C43.2788 169.568 43.1238 170.076 42.8518 170.505C42.8518 170.115 42.9688 169.841 43.1238 169.334L42.4648 168.397L42.0768 169.334H41.9218C41.2248 169.334 41.0308 170.193 40.7208 170.466C40.1008 170.934 39.6748 171.325 39.2488 171.95C38.9388 172.418 37.8928 172.574 38.0858 173.55C37.1558 173.707 36.6138 174.37 36.6138 175.386H36.5358C35.3738 175.386 35.6058 176.752 35.1798 177.221C34.4828 177.962 34.3658 178.665 34.1338 179.602C33.9398 180.461 33.5908 180.969 34.0558 181.984C34.2888 182.531 33.7848 183.546 34.5208 184.17C35.0248 184.639 35.6448 184.99 36.4198 185.146C36.6528 185.225 36.9238 185.654 37.2338 185.654H37.3888C37.6598 185.537 37.9308 185.264 38.2028 184.834C38.6288 184.17 39.2878 183.624 39.2878 182.726C39.2878 181.828 38.8608 181.398 38.5508 180.93C39.0158 180.656 39.0548 180.266 39.2098 179.837V179.719L39.5198 178.782L40.4108 177.767L41.4568 176.596C41.9998 176.362 42.4258 175.737 42.8518 175.346C43.2788 174.956 43.8598 174.527 44.1698 174.136C44.4798 173.746 45.4488 173.589 45.4488 172.77C45.9138 172.652 46.3008 172.496 46.7268 172.106L45.6418 171.403C44.4408 171.911 43.3558 172.223 42.1158 172.535L42.7748 170.388C42.7748 171.052 42.5418 171.637 42.3098 172.34L45.3708 171.286H45.4868C45.8748 171.286 46.4168 171.715 46.6878 171.872L50.4858 174.331C50.9898 174.683 51.3768 175.073 51.5318 175.581C51.6868 176.088 52.1518 176.44 52.6938 176.44C53.2368 176.44 53.7408 176.127 53.9338 175.698C54.1668 175.229 54.0888 174.487 53.5468 174.214V174.175ZM48.6648 165.82C49.0128 165.585 49.2848 165.312 49.6328 164.961L55.0968 159.299L60.3278 154.068C63.9698 150.397 67.4958 146.727 70.7898 142.706C75.1688 137.357 79.3148 131.11 82.2208 124.785C82.2718 124.732 82.3238 124.706 82.3758 124.706C82.4528 124.706 82.3758 124.785 82.3758 124.98L81.6398 126.542C80.5928 128.806 79.5468 130.914 78.1908 133.023C74.4708 138.879 70.2858 144.189 65.5198 149.187L61.8778 153.013L53.9728 160.978L49.9818 165.117C49.5948 165.468 49.1298 165.742 48.6648 165.82ZM46.2228 169.412L45.3708 169.607V168.748H46.2228V169.412ZM72.8048 100.851C68.5428 106.161 62.7688 110.651 57.1888 114.477C56.6078 114.867 56.9568 115.648 56.9568 116.156V120.255L56.7238 121.505H44.6348C53.8568 114.828 64.0868 106.278 69.5498 96.282C69.7828 95.853 69.9378 95.345 69.6278 94.877C67.1088 95.111 63.9318 95.267 61.5288 95.267C59.1268 95.267 56.7628 95.15 54.5928 94.916H54.3608C54.0888 94.916 53.7408 94.994 53.6238 95.228C53.2368 96.048 54.4378 96.282 53.8958 99.523C53.3528 102.764 52.8878 103.545 52.0358 105.497C49.0518 112.212 42.9298 117.639 36.7298 121.427C36.6138 122.169 36.7298 122.871 36.7298 123.652L36.8848 125.917L37.0008 127.596L53.1588 127.752C53.8568 127.752 54.4378 127.83 55.2128 127.908C54.4768 130.016 53.6628 132.125 52.2678 133.921C51.4548 134.975 51.3768 135.053 51.5318 135.053C51.5318 135.053 51.5578 135.053 51.6088 135.053C51.6868 135.053 51.8418 135.053 51.9188 135.248C54.3218 134.897 56.6858 134.702 59.1268 134.702C61.5678 134.702 64.0478 134.897 66.4888 135.248C66.9538 135.014 66.9928 134.428 66.8378 134.038C66.4108 132.749 66.2948 130.055 66.6048 128.689L70.4018 129.236L71.9518 121.505H67.4188C68.8528 114.282 70.6738 107.8 73.6568 101.124C73.4638 100.968 73.1538 100.851 72.9208 100.851H72.8048ZM52.3458 157.191C47.8118 152.857 43.6268 148.445 39.5968 143.721C35.9548 139.426 32.8548 134.858 29.9878 130.055L27.8948 125.292C29.2128 127.674 30.2978 129.899 31.7698 132.281C34.7928 137.161 38.0858 141.652 41.8838 145.829H41.8058L42.5038 146.571L47.0758 151.491L52.5388 156.957L54.2438 155.239C45.4098 146.571 37.8538 137.942 31.4988 127.283C29.0578 123.184 26.9648 119.045 25.4538 114.555C24.4468 111.588 23.7878 108.698 23.6328 105.575C23.6328 104.716 23.6718 103.584 23.7488 102.764C23.7488 102.451 23.7108 102.334 23.6328 102.334C23.4778 102.334 23.2458 102.569 23.2068 102.647C22.7808 103.584 22.5478 105.223 22.3928 106.356C22.1218 108.62 22.1988 110.768 22.4708 113.11C24.0588 126.971 33.1258 140.285 42.3098 150.28L45.0608 153.248L50.6798 158.909L52.3458 157.191ZM75.3618 179.68C76.0598 178.665 74.9748 178.275 74.7038 177.338C74.4318 176.401 74.5098 176.596 73.4638 175.19C72.4168 173.785 71.7968 173.199 70.6348 171.911C70.1698 171.403 69.7438 170.856 69.2008 170.544C68.8138 170.271 68.6978 169.295 67.9998 169.295H67.7678L67.4188 168.397L66.6828 169.373C66.9538 169.646 67.4188 171.325 67.3408 171.637C67.1858 171.286 67.0308 170.934 66.9148 170.583L66.4888 169.295L70.1308 165C70.5568 164.492 70.8678 164.141 71.6038 164.024C71.9908 163.946 72.4168 163.594 72.4948 163.126C72.5718 162.657 72.3398 162.15 71.9518 161.876C71.7198 161.72 71.3708 161.642 71.1388 161.642C70.9058 161.642 70.6738 161.681 70.4408 161.798C70.0538 161.954 69.8208 162.54 69.7438 163.087L63.9698 166.796L64.7448 165.976L59.3198 160.432L57.6538 162.111L60.8318 165.468C61.0248 165.664 61.6068 165.781 61.7998 165.898H61.6448C61.1028 165.898 60.5598 165.585 60.1728 165.195L57.3828 162.384L55.7558 164.102L60.9088 169.334C60.9478 169.334 60.7928 169.334 61.0248 169.334C61.2578 169.334 61.5678 168.787 61.4518 168.514C61.3348 168.201 61.2968 167.811 61.4518 167.538L61.7618 168.826L57.7708 173.589C57.4988 173.902 56.7628 173.941 56.3758 174.136C55.6008 174.566 55.8328 175.776 56.3758 176.166C56.6078 176.323 56.7238 176.401 57.1508 176.401C57.5768 176.401 58.0028 176.205 58.2738 175.776C58.4288 175.542 58.5838 175.151 58.6998 174.839L64.2418 171.286C64.8608 171.286 67.0698 172.301 67.4578 172.301V171.793C67.5738 171.989 67.6898 172.262 67.7678 172.613L64.2418 171.559C63.9698 171.637 63.5438 171.911 63.3118 172.067C63.3118 172.691 64.1248 172.691 64.3188 172.926C64.6678 173.433 65.2098 173.863 65.6358 174.253L67.0308 175.503C68.7748 177.064 67.9608 176.244 69.4728 177.845C69.7048 178.08 70.0538 178.626 70.2478 178.939H70.1308C70.8668 180.032 70.2478 180.539 71.2938 180.891C70.0148 182.101 70.4028 183.624 71.4868 184.678C71.7588 184.951 71.8748 185.615 72.2618 185.615H72.3398C72.6108 185.615 72.5718 185.42 73.2698 185.186C74.0448 184.912 74.6258 184.834 75.2068 184.131C75.7888 183.429 75.6718 182.726 75.6718 181.867C75.6718 181.515 76.1368 181.008 76.0208 180.539C75.9438 180.266 75.6718 179.915 75.3238 179.641L75.3618 179.68ZM64.5898 169.607L63.6988 169.49V168.748H64.5898V169.607Z" fill="var(--fill-0, white)"/>
</g>
</svg>
