<svg preserveAspectRatio="none" width="100%" height="100%" overflow="visible" style="display: block;" viewBox="0 0 27 38" fill="none" xmlns="http://www.w3.org/2000/svg">
<path id="Vector" fill-rule="evenodd" clip-rule="evenodd" d="M12.9138 33.1948C12.77 33.1131 12.5624 33.0641 12.3866 33.0151L10.6932 30.972L10.869 30.3673C11.0287 30.5634 10.7571 30.7105 10.869 31.0701C10.869 31.1028 10.9648 31.1518 11.0287 31.1518C11.0926 31.1518 11.0766 31.1518 11.0926 31.1518L15.9971 26.0688L18.7768 23.1269C20.8536 20.9204 23.2978 17.4882 24.6557 14.7424C25.7101 12.6176 26.5089 10.3948 26.8284 8.02495C26.9722 7.02796 27.068 6.09634 26.9402 5.1157L26.8124 4.11871C26.7964 3.93892 26.6527 3.31785 26.5249 3.25247H26.4929C26.461 3.25247 26.3491 3.3015 26.3491 3.33419L26.3811 4.20043C26.5249 9.72473 20.4222 18.3381 16.7479 22.1626L13.3452 25.7092L9.4152 29.7953C9.51106 29.9587 9.70276 30.0241 9.97434 30.0241L9.75068 30.1058C9.68678 30.1058 9.6069 30.0077 9.543 29.9751L7.68985 28.7819C7.48217 28.6512 7.35436 28.5041 7.30644 28.2753C7.25851 28.0465 6.98694 27.9484 6.77926 27.9484C6.58756 27.9484 6.37986 27.9974 6.28401 28.3243C6.18816 28.6512 6.37987 28.929 6.71536 28.9781C6.81121 28.9781 7.00291 29.0598 7.06681 29.1415L8.68032 31.0864C8.68032 31.2662 8.61642 31.4787 8.50459 31.6585C8.50459 31.4951 8.55253 31.3806 8.61643 31.1682L8.34484 30.7759L8.18509 31.1682H8.12118C7.83362 31.1682 7.75375 31.5277 7.62595 31.6422C7.37034 31.8383 7.19462 32.0017 7.01889 32.2632C6.89109 32.4594 6.45975 32.5247 6.53963 32.9333C6.15622 32.9987 5.93256 33.2766 5.93256 33.7015H5.90061C5.42135 33.7015 5.5172 34.2735 5.34147 34.4697C5.05392 34.7802 5.00598 35.0744 4.91013 35.4667C4.83025 35.8262 4.68648 36.0387 4.87818 36.4637C4.97404 36.6925 4.76635 37.1174 5.06988 37.3789C5.27756 37.5751 5.53317 37.7221 5.85268 37.7875C5.94853 37.8202 6.06036 38 6.18816 38H6.25206C6.36389 37.951 6.47572 37.8366 6.58754 37.6568C6.76327 37.3789 7.03486 37.1501 7.03486 36.7742C7.03486 36.3983 6.85913 36.2185 6.73133 36.0224C6.92303 35.908 6.939 35.7445 7.0029 35.5647V35.5157L7.13071 35.1234L7.49815 34.6985L7.92948 34.2082C8.15314 34.1101 8.32886 33.8486 8.50459 33.6852C8.68032 33.5217 8.91996 33.3419 9.04776 33.1785C9.17557 33.0151 9.57496 32.9497 9.57496 32.6064C9.76666 32.5574 9.92641 32.492 10.1021 32.3286L9.65484 32.0344C9.1596 32.2469 8.71227 32.3776 8.20106 32.5084L8.47265 31.6095C8.47265 31.8873 8.37679 32.1325 8.28093 32.4267L9.543 31.9854H9.59093C9.75068 31.9854 9.97434 32.1652 10.0862 32.2305L11.6518 33.2602C11.8594 33.4073 12.0192 33.5707 12.0831 33.7832C12.147 33.9957 12.3387 34.1428 12.5624 34.1428C12.786 34.1428 12.9937 34.012 13.0736 33.8323C13.1694 33.6361 13.1375 33.3256 12.9138 33.2112V33.1948ZM10.9009 29.6972C11.0447 29.5991 11.1565 29.4847 11.3003 29.3376L13.5528 26.9677L15.7095 24.7776C17.2112 23.2413 18.665 21.7049 20.0229 20.0215C21.8281 17.7824 23.5375 15.1673 24.7356 12.5196C24.7569 12.4978 24.7782 12.4869 24.7995 12.4869C24.8315 12.4869 24.7995 12.5196 24.7995 12.6013L24.496 13.2551C24.0646 14.203 23.6333 15.0856 23.0742 15.9682C21.5405 18.4198 19.8152 20.6426 17.8502 22.7346L16.3485 24.3363L13.0895 27.6705L11.4441 29.403C11.2843 29.5501 11.0926 29.6645 10.9009 29.6972ZM9.89447 31.2009L9.543 31.2826V30.923H9.89447V31.2009ZM20.8536 2.50064C19.0963 4.72344 16.716 6.60301 14.4155 8.20473C14.1759 8.36817 14.3196 8.69505 14.3196 8.90753V10.6237L14.2238 11.1467H9.23946C13.0416 8.35182 17.2591 4.77247 19.5117 0.588388C19.6075 0.408603 19.6714 0.196129 19.5436 0C18.5052 0.0980645 17.1952 0.163441 16.2048 0.163441C15.2143 0.163441 14.2398 0.11441 13.3452 0.0163451H13.2493C13.1375 0.0163451 12.9937 0.0490313 12.9458 0.147096C12.786 0.490322 13.2812 0.588386 13.0576 1.94495C12.8339 3.3015 12.6422 3.62838 12.2908 4.44559C11.0607 7.25677 8.53656 9.5286 5.98049 11.114C5.93256 11.4245 5.98049 11.7187 5.98049 12.0456L6.04438 12.9935L6.09231 13.6963L12.7541 13.7617C13.0416 13.7617 13.2812 13.7944 13.6008 13.8271C13.2972 14.7097 12.9617 15.5923 12.3866 16.3441C12.0511 16.7854 12.0192 16.8181 12.0831 16.8181C12.0831 16.8181 12.0937 16.8181 12.115 16.8181C12.147 16.8181 12.2109 16.8181 12.2428 16.8998C13.2333 16.7527 14.2078 16.671 15.2143 16.671C16.2207 16.671 17.2431 16.7527 18.2496 16.8998C18.4413 16.8017 18.4573 16.5566 18.3934 16.3931C18.2176 15.8538 18.1697 14.726 18.2975 14.154L19.8631 14.3828L20.5021 11.1467H18.633C19.2241 8.12301 19.9749 5.40989 21.205 2.61505C21.1252 2.54968 20.9974 2.50064 20.9015 2.50064H20.8536ZM12.4186 26.0852C10.5494 24.271 8.8241 22.4241 7.16266 20.4465C5.66097 18.6486 4.38295 16.7363 3.20076 14.726L2.33809 12.732C2.88125 13.729 3.32856 14.6606 3.93563 15.6576C5.18171 17.7006 6.53962 19.5802 8.10521 21.329H8.07327L8.36081 21.6396L10.2459 23.6989L12.4984 25.9871L13.2014 25.268C9.55898 21.6396 6.44378 18.0275 3.82381 13.5656C2.81736 11.8495 1.95467 10.117 1.33163 8.23742C0.916269 6.99527 0.644695 5.7858 0.580793 4.47828C0.580793 4.11871 0.596776 3.64473 0.628727 3.3015C0.628727 3.17075 0.612744 3.12172 0.580793 3.12172C0.516891 3.12172 0.421043 3.21978 0.405067 3.25247C0.229338 3.64473 0.133489 4.33118 0.0695876 4.80516C-0.0422402 5.75312 -0.0102972 6.65204 0.101531 7.63268C0.756523 13.4348 4.49476 19.0082 8.28093 23.1923L9.4152 24.4344L11.7316 26.8043L12.4186 26.0852ZM21.908 35.4994C22.1955 35.0744 21.7482 34.911 21.6364 34.5187C21.5246 34.1264 21.5565 34.2082 21.1252 33.6198C20.6938 33.0314 20.4382 32.7862 19.959 32.2469C19.7673 32.0344 19.5915 31.8056 19.3679 31.6748C19.2081 31.5604 19.1602 31.1518 18.8726 31.1518H18.7768L18.633 30.7759L18.3295 31.1845C18.4413 31.2989 18.633 32.0017 18.6011 32.1325C18.5372 31.9854 18.4732 31.8383 18.4253 31.6912L18.2496 31.1518L19.7513 29.354C19.927 29.1415 20.0548 28.9944 20.3584 28.9454C20.5181 28.9127 20.6938 28.7656 20.7258 28.5695C20.7577 28.3733 20.6619 28.1609 20.5021 28.0465C20.4063 27.9811 20.2625 27.9484 20.1666 27.9484C20.0708 27.9484 19.975 27.9647 19.8791 28.0138C19.7193 28.0791 19.6235 28.3243 19.5915 28.5531L17.2112 30.1058L17.5307 29.7626L15.2941 27.4417L14.6072 28.1445L15.9172 29.5501C15.9971 29.6318 16.2367 29.6809 16.3166 29.7299H16.2527C16.029 29.7299 15.8054 29.5991 15.6456 29.4357L14.4954 28.2589L13.8244 28.9781L15.9491 31.1682C15.9651 31.1682 15.9012 31.1682 15.9971 31.1682C16.0929 31.1682 16.2207 30.9394 16.1728 30.8249C16.1249 30.6942 16.1089 30.5308 16.1728 30.4163L16.3006 30.9557L14.6551 32.9497C14.5433 33.0804 14.2398 33.0968 14.08 33.1785C13.7605 33.3583 13.8564 33.8649 14.08 34.0284C14.1759 34.0938 14.2238 34.1264 14.3995 34.1264C14.5753 34.1264 14.751 34.0447 14.8628 33.8649C14.9267 33.7669 14.9906 33.6034 15.0385 33.4727L17.323 31.9854C17.5786 31.9854 18.4892 32.4103 18.649 32.4103V32.1978C18.6969 32.2796 18.7448 32.394 18.7768 32.5411L17.323 32.0998C17.2112 32.1325 17.0355 32.2469 16.9396 32.3123C16.9396 32.5738 17.2751 32.5738 17.355 32.6718C17.4988 32.8843 17.7224 33.0641 17.8981 33.2275L18.4733 33.7505C19.1921 34.4043 18.8567 34.0611 19.4797 34.7312C19.5756 34.8292 19.7193 35.0581 19.7992 35.1888H19.7513C20.0548 35.6464 19.7992 35.8589 20.2306 36.006C19.7034 36.5127 19.8631 37.1501 20.3104 37.5914C20.4223 37.7058 20.4702 37.9837 20.6299 37.9837H20.6619C20.7737 37.9837 20.7577 37.9019 21.0453 37.8039C21.3648 37.6895 21.6044 37.6568 21.8441 37.3626C22.0837 37.0684 22.0358 36.7742 22.0358 36.4146C22.0358 36.2675 22.2275 36.0551 22.1795 35.8589C22.1476 35.7445 22.0358 35.5974 21.892 35.483L21.908 35.4994ZM17.4668 31.2826L17.0994 31.2335V30.923H17.4668V31.2826Z" fill="var(--fill-0, white)"/>
</svg>
