<svg preserveAspectRatio="none" width="100%" height="100%" overflow="visible" style="display: block;" viewBox="0 0 26.6667 26.6667" fill="none" xmlns="http://www.w3.org/2000/svg">
<path id="vector" fill-rule="evenodd" clip-rule="evenodd" d="M26.6667 13.3333C26.6667 20.6971 20.6971 26.6667 13.3333 26.6667C5.96954 26.6667 0 20.6971 0 13.3333C0 5.96954 5.96954 0 13.3333 0C20.6971 0 26.6667 5.96954 26.6667 13.3333ZM13.8111 9.84327C12.5142 10.3827 9.92235 11.4991 6.03541 13.1926C5.40423 13.4436 5.07359 13.6891 5.04349 13.9292C4.99263 14.335 5.50077 14.4948 6.19272 14.7124C6.28685 14.742 6.38437 14.7726 6.48435 14.8051C7.16513 15.0264 8.08089 15.2853 8.55696 15.2956C8.9888 15.3049 9.47078 15.1269 10.0029 14.7615C13.6346 12.31 15.5093 11.0709 15.627 11.0442C15.71 11.0254 15.8251 11.0017 15.903 11.071C15.981 11.1403 15.9733 11.2715 15.9651 11.3067C15.9147 11.5213 13.9201 13.3757 12.8879 14.3353C12.5661 14.6345 12.3378 14.8467 12.2912 14.8952C12.1866 15.0037 12.0801 15.1064 11.9777 15.2051C11.3453 15.8148 10.871 16.272 12.004 17.0187C12.5485 17.3775 12.9841 17.6742 13.4188 17.9702C13.8935 18.2934 14.367 18.6159 14.9795 19.0174C15.1356 19.1197 15.2847 19.226 15.4298 19.3295C15.9823 19.7233 16.4786 20.0772 17.0917 20.0207C17.448 19.9879 17.816 19.6529 18.0029 18.6538C18.4447 16.2924 19.3129 11.1761 19.5135 9.06776C19.5311 8.88305 19.509 8.64665 19.4913 8.54287C19.4735 8.4391 19.4364 8.29124 19.3015 8.18179C19.1417 8.05216 18.8951 8.02483 18.7848 8.02677C18.2833 8.03561 17.5139 8.30314 13.8111 9.84327Z" fill="var(--fill-0, #EEEEEE)"/>
</svg>
